G04 PROTEUS RS274X GERBER FILE*
%FSLAX45Y45*%
%MOMM*%
G01*
%ADD70C,0.203200*%
%ADD71C,0.127000*%
%ADD20C,0.063500*%
D70*
X-1250000Y+6063500D02*
X-1250000Y+5936500D01*
X-1186500Y+6000000D02*
X-1313500Y+6000000D01*
X-1205099Y+6044901D02*
X-1294901Y+5955099D01*
X-1205099Y+5955099D02*
X-1294901Y+6044901D01*
X-1758000Y+6063500D02*
X-1758000Y+5936500D01*
X-1694500Y+6000000D02*
X-1821500Y+6000000D01*
X-1713099Y+6044901D02*
X-1802901Y+5955099D01*
X-1713099Y+5955099D02*
X-1802901Y+6044901D01*
X-2266000Y+6063500D02*
X-2266000Y+5936500D01*
X-2202500Y+6000000D02*
X-2329500Y+6000000D01*
X-2221099Y+6044901D02*
X-2310901Y+5955099D01*
X-2221099Y+5955099D02*
X-2310901Y+6044901D01*
X-3750000Y+6063500D02*
X-3750000Y+5936500D01*
X-3686500Y+6000000D02*
X-3813500Y+6000000D01*
X-3705099Y+6044901D02*
X-3794901Y+5955099D01*
X-3705099Y+5955099D02*
X-3794901Y+6044901D01*
X-4258000Y+6063500D02*
X-4258000Y+5936500D01*
X-4194500Y+6000000D02*
X-4321500Y+6000000D01*
X-4213099Y+6044901D02*
X-4302901Y+5955099D01*
X-4213099Y+5955099D02*
X-4302901Y+6044901D01*
X-4766000Y+6063500D02*
X-4766000Y+5936500D01*
X-4702500Y+6000000D02*
X-4829500Y+6000000D01*
X-4721099Y+6044901D02*
X-4810901Y+5955099D01*
X-4721099Y+5955099D02*
X-4810901Y+6044901D01*
X-6250000Y+6063500D02*
X-6250000Y+5936500D01*
X-6186500Y+6000000D02*
X-6313500Y+6000000D01*
X-6205099Y+6044901D02*
X-6294901Y+5955099D01*
X-6205099Y+5955099D02*
X-6294901Y+6044901D01*
X-6758000Y+6063500D02*
X-6758000Y+5936500D01*
X-6694500Y+6000000D02*
X-6821500Y+6000000D01*
X-6713099Y+6044901D02*
X-6802901Y+5955099D01*
X-6713099Y+5955099D02*
X-6802901Y+6044901D01*
X-7266000Y+6063500D02*
X-7266000Y+5936500D01*
X-7202500Y+6000000D02*
X-7329500Y+6000000D01*
X-7221099Y+6044901D02*
X-7310901Y+5955099D01*
X-7221099Y+5955099D02*
X-7310901Y+6044901D01*
X-1150000Y+3513500D02*
X-1150000Y+3386500D01*
X-1086500Y+3450000D02*
X-1213500Y+3450000D01*
X-1105099Y+3494901D02*
X-1194901Y+3405099D01*
X-1105099Y+3405099D02*
X-1194901Y+3494901D01*
X-2350000Y+3513500D02*
X-2350000Y+3386500D01*
X-2286500Y+3450000D02*
X-2413500Y+3450000D01*
X-2305099Y+3494901D02*
X-2394901Y+3405099D01*
X-2305099Y+3405099D02*
X-2394901Y+3494901D01*
X-1750000Y+3313500D02*
X-1750000Y+3186500D01*
X-1686500Y+3250000D02*
X-1813500Y+3250000D01*
X-1705099Y+3294901D02*
X-1794901Y+3205099D01*
X-1705099Y+3205099D02*
X-1794901Y+3294901D01*
X-2350000Y+4763500D02*
X-2350000Y+4636500D01*
X-2286500Y+4700000D02*
X-2413500Y+4700000D01*
X-2305099Y+4744901D02*
X-2394901Y+4655099D01*
X-2305099Y+4655099D02*
X-2394901Y+4744901D01*
X-1150000Y+4763500D02*
X-1150000Y+4636500D01*
X-1086500Y+4700000D02*
X-1213500Y+4700000D01*
X-1105099Y+4744901D02*
X-1194901Y+4655099D01*
X-1105099Y+4655099D02*
X-1194901Y+4744901D01*
X-3650000Y+3513500D02*
X-3650000Y+3386500D01*
X-3586500Y+3450000D02*
X-3713500Y+3450000D01*
X-3605099Y+3494901D02*
X-3694901Y+3405099D01*
X-3605099Y+3405099D02*
X-3694901Y+3494901D01*
X-4850000Y+3513500D02*
X-4850000Y+3386500D01*
X-4786500Y+3450000D02*
X-4913500Y+3450000D01*
X-4805099Y+3494901D02*
X-4894901Y+3405099D01*
X-4805099Y+3405099D02*
X-4894901Y+3494901D01*
X-4250000Y+3313500D02*
X-4250000Y+3186500D01*
X-4186500Y+3250000D02*
X-4313500Y+3250000D01*
X-4205099Y+3294901D02*
X-4294901Y+3205099D01*
X-4205099Y+3205099D02*
X-4294901Y+3294901D01*
X-4850000Y+4763500D02*
X-4850000Y+4636500D01*
X-4786500Y+4700000D02*
X-4913500Y+4700000D01*
X-4805099Y+4744901D02*
X-4894901Y+4655099D01*
X-4805099Y+4655099D02*
X-4894901Y+4744901D01*
X-3650000Y+4763500D02*
X-3650000Y+4636500D01*
X-3586500Y+4700000D02*
X-3713500Y+4700000D01*
X-3605099Y+4744901D02*
X-3694901Y+4655099D01*
X-3605099Y+4655099D02*
X-3694901Y+4744901D01*
X-6150000Y+3513500D02*
X-6150000Y+3386500D01*
X-6086500Y+3450000D02*
X-6213500Y+3450000D01*
X-6105099Y+3494901D02*
X-6194901Y+3405099D01*
X-6105099Y+3405099D02*
X-6194901Y+3494901D01*
X-7350000Y+3513500D02*
X-7350000Y+3386500D01*
X-7286500Y+3450000D02*
X-7413500Y+3450000D01*
X-7305099Y+3494901D02*
X-7394901Y+3405099D01*
X-7305099Y+3405099D02*
X-7394901Y+3494901D01*
X-6750000Y+3313500D02*
X-6750000Y+3186500D01*
X-6686500Y+3250000D02*
X-6813500Y+3250000D01*
X-6705099Y+3294901D02*
X-6794901Y+3205099D01*
X-6705099Y+3205099D02*
X-6794901Y+3294901D01*
X-7350000Y+4763500D02*
X-7350000Y+4636500D01*
X-7286500Y+4700000D02*
X-7413500Y+4700000D01*
X-7305099Y+4744901D02*
X-7394901Y+4655099D01*
X-7305099Y+4655099D02*
X-7394901Y+4744901D01*
X-6150000Y+4763500D02*
X-6150000Y+4636500D01*
X-6086500Y+4700000D02*
X-6213500Y+4700000D01*
X-6105099Y+4744901D02*
X-6194901Y+4655099D01*
X-6105099Y+4655099D02*
X-6194901Y+4744901D01*
X-2221099Y+2544901D02*
X-2310901Y+2455099D01*
X-2221099Y+2455099D02*
X-2310901Y+2544901D01*
X-1205099Y+2544901D02*
X-1294901Y+2455099D01*
X-1205099Y+2455099D02*
X-1294901Y+2544901D01*
X-4721099Y+2544901D02*
X-4810901Y+2455099D01*
X-4721099Y+2455099D02*
X-4810901Y+2544901D01*
X-3705099Y+2544901D02*
X-3794901Y+2455099D01*
X-3705099Y+2455099D02*
X-3794901Y+2544901D01*
X-7221099Y+2544901D02*
X-7310901Y+2455099D01*
X-7221099Y+2455099D02*
X-7310901Y+2544901D01*
X-6205099Y+2544901D02*
X-6294901Y+2455099D01*
X-6205099Y+2455099D02*
X-6294901Y+2544901D01*
X-2997099Y+1144901D02*
X-3086901Y+1055099D01*
X-2997099Y+1055099D02*
X-3086901Y+1144901D01*
X-3251099Y+1144901D02*
X-3340901Y+1055099D01*
X-3251099Y+1055099D02*
X-3340901Y+1144901D01*
X-3505099Y+1144901D02*
X-3594901Y+1055099D01*
X-3505099Y+1055099D02*
X-3594901Y+1144901D01*
X-1596800Y+1813500D02*
X-1596800Y+1686500D01*
X-1533300Y+1750000D02*
X-1660300Y+1750000D01*
X-1800000Y+1813500D02*
X-1800000Y+1686500D01*
X-1736500Y+1750000D02*
X-1863500Y+1750000D01*
X-2003200Y+1813500D02*
X-2003200Y+1686500D01*
X-1939700Y+1750000D02*
X-2066700Y+1750000D01*
X-1300000Y+1363500D02*
X-1300000Y+1236500D01*
X-1236500Y+1300000D02*
X-1363500Y+1300000D01*
X-2316000Y+1363500D02*
X-2316000Y+1236500D01*
X-2252500Y+1300000D02*
X-2379500Y+1300000D01*
X-1300000Y+863500D02*
X-1300000Y+736500D01*
X-1236500Y+800000D02*
X-1363500Y+800000D01*
X-2316000Y+863500D02*
X-2316000Y+736500D01*
X-2252500Y+800000D02*
X-2379500Y+800000D01*
X-436500Y+500000D02*
X-436725Y+505335D01*
X-438551Y+516007D01*
X-442376Y+526679D01*
X-448647Y+537351D01*
X-458220Y+547819D01*
X-468892Y+555358D01*
X-479564Y+560122D01*
X-490236Y+562745D01*
X-500000Y+563500D01*
X-563500Y+500000D02*
X-563275Y+505335D01*
X-561449Y+516007D01*
X-557624Y+526679D01*
X-551353Y+537351D01*
X-541780Y+547819D01*
X-531108Y+555358D01*
X-520436Y+560122D01*
X-509764Y+562745D01*
X-500000Y+563500D01*
X-563500Y+500000D02*
X-563275Y+494665D01*
X-561449Y+483993D01*
X-557624Y+473321D01*
X-551353Y+462649D01*
X-541780Y+452181D01*
X-531108Y+444642D01*
X-520436Y+439878D01*
X-509764Y+437255D01*
X-500000Y+436500D01*
X-436500Y+500000D02*
X-436725Y+494665D01*
X-438551Y+483993D01*
X-442376Y+473321D01*
X-448647Y+462649D01*
X-458220Y+452181D01*
X-468892Y+444642D01*
X-479564Y+439878D01*
X-490236Y+437255D01*
X-500000Y+436500D01*
X-500000Y+563500D02*
X-500000Y+436500D01*
X-436500Y+500000D02*
X-563500Y+500000D01*
X-8186500Y+500000D02*
X-8186725Y+505335D01*
X-8188551Y+516007D01*
X-8192376Y+526679D01*
X-8198647Y+537351D01*
X-8208220Y+547819D01*
X-8218892Y+555358D01*
X-8229564Y+560122D01*
X-8240236Y+562745D01*
X-8250000Y+563500D01*
X-8313500Y+500000D02*
X-8313275Y+505335D01*
X-8311449Y+516007D01*
X-8307624Y+526679D01*
X-8301353Y+537351D01*
X-8291780Y+547819D01*
X-8281108Y+555358D01*
X-8270436Y+560122D01*
X-8259764Y+562745D01*
X-8250000Y+563500D01*
X-8313500Y+500000D02*
X-8313275Y+494665D01*
X-8311449Y+483993D01*
X-8307624Y+473321D01*
X-8301353Y+462649D01*
X-8291780Y+452181D01*
X-8281108Y+444642D01*
X-8270436Y+439878D01*
X-8259764Y+437255D01*
X-8250000Y+436500D01*
X-8186500Y+500000D02*
X-8186725Y+494665D01*
X-8188551Y+483993D01*
X-8192376Y+473321D01*
X-8198647Y+462649D01*
X-8208220Y+452181D01*
X-8218892Y+444642D01*
X-8229564Y+439878D01*
X-8240236Y+437255D01*
X-8250000Y+436500D01*
X-8250000Y+563500D02*
X-8250000Y+436500D01*
X-8186500Y+500000D02*
X-8313500Y+500000D01*
X-436500Y+6750000D02*
X-436725Y+6755335D01*
X-438551Y+6766007D01*
X-442376Y+6776679D01*
X-448647Y+6787351D01*
X-458220Y+6797819D01*
X-468892Y+6805358D01*
X-479564Y+6810122D01*
X-490236Y+6812745D01*
X-500000Y+6813500D01*
X-563500Y+6750000D02*
X-563275Y+6755335D01*
X-561449Y+6766007D01*
X-557624Y+6776679D01*
X-551353Y+6787351D01*
X-541780Y+6797819D01*
X-531108Y+6805358D01*
X-520436Y+6810122D01*
X-509764Y+6812745D01*
X-500000Y+6813500D01*
X-563500Y+6750000D02*
X-563275Y+6744665D01*
X-561449Y+6733993D01*
X-557624Y+6723321D01*
X-551353Y+6712649D01*
X-541780Y+6702181D01*
X-531108Y+6694642D01*
X-520436Y+6689878D01*
X-509764Y+6687255D01*
X-500000Y+6686500D01*
X-436500Y+6750000D02*
X-436725Y+6744665D01*
X-438551Y+6733993D01*
X-442376Y+6723321D01*
X-448647Y+6712649D01*
X-458220Y+6702181D01*
X-468892Y+6694642D01*
X-479564Y+6689878D01*
X-490236Y+6687255D01*
X-500000Y+6686500D01*
X-500000Y+6813500D02*
X-500000Y+6686500D01*
X-436500Y+6750000D02*
X-563500Y+6750000D01*
X-8186500Y+6750000D02*
X-8186725Y+6755335D01*
X-8188551Y+6766007D01*
X-8192376Y+6776679D01*
X-8198647Y+6787351D01*
X-8208220Y+6797819D01*
X-8218892Y+6805358D01*
X-8229564Y+6810122D01*
X-8240236Y+6812745D01*
X-8250000Y+6813500D01*
X-8313500Y+6750000D02*
X-8313275Y+6755335D01*
X-8311449Y+6766007D01*
X-8307624Y+6776679D01*
X-8301353Y+6787351D01*
X-8291780Y+6797819D01*
X-8281108Y+6805358D01*
X-8270436Y+6810122D01*
X-8259764Y+6812745D01*
X-8250000Y+6813500D01*
X-8313500Y+6750000D02*
X-8313275Y+6744665D01*
X-8311449Y+6733993D01*
X-8307624Y+6723321D01*
X-8301353Y+6712649D01*
X-8291780Y+6702181D01*
X-8281108Y+6694642D01*
X-8270436Y+6689878D01*
X-8259764Y+6687255D01*
X-8250000Y+6686500D01*
X-8186500Y+6750000D02*
X-8186725Y+6744665D01*
X-8188551Y+6733993D01*
X-8192376Y+6723321D01*
X-8198647Y+6712649D01*
X-8208220Y+6702181D01*
X-8218892Y+6694642D01*
X-8229564Y+6689878D01*
X-8240236Y+6687255D01*
X-8250000Y+6686500D01*
X-8250000Y+6813500D02*
X-8250000Y+6686500D01*
X-8186500Y+6750000D02*
X-8313500Y+6750000D01*
X-5055099Y+1144901D02*
X-5144901Y+1055099D01*
X-5055099Y+1055099D02*
X-5144901Y+1144901D01*
X-5309099Y+1144901D02*
X-5398901Y+1055099D01*
X-5309099Y+1055099D02*
X-5398901Y+1144901D01*
X-5563099Y+1144901D02*
X-5652901Y+1055099D01*
X-5563099Y+1055099D02*
X-5652901Y+1144901D01*
X-6596800Y+1813500D02*
X-6596800Y+1686500D01*
X-6533300Y+1750000D02*
X-6660300Y+1750000D01*
X-6800000Y+1813500D02*
X-6800000Y+1686500D01*
X-6736500Y+1750000D02*
X-6863500Y+1750000D01*
X-7003200Y+1813500D02*
X-7003200Y+1686500D01*
X-6939700Y+1750000D02*
X-7066700Y+1750000D01*
X-6284000Y+1363500D02*
X-6284000Y+1236500D01*
X-6220500Y+1300000D02*
X-6347500Y+1300000D01*
X-7300000Y+1363500D02*
X-7300000Y+1236500D01*
X-7236500Y+1300000D02*
X-7363500Y+1300000D01*
X-6284000Y+863500D02*
X-6284000Y+736500D01*
X-6220500Y+800000D02*
X-6347500Y+800000D01*
X-7300000Y+863500D02*
X-7300000Y+736500D01*
X-7236500Y+800000D02*
X-7363500Y+800000D01*
X-8750000Y+0D02*
X+0Y+0D01*
X+0Y+7250000D01*
X-8750000Y+7250000D01*
X-8750000Y+0D01*
D71*
X-2633980Y-1508760D02*
X+10160Y-1508760D01*
X+10160Y-264160D01*
X-2633980Y-264160D01*
X-2633980Y-1508760D01*
D20*
X-457202Y-264160D02*
X-457202Y-1508760D01*
X-1270002Y-264160D02*
X-1270002Y-1508760D01*
X-2103122Y-264160D02*
X-2103122Y-1508760D01*
X+10160Y-537210D02*
X-2633980Y-537210D01*
X+10160Y-778510D02*
X-2633980Y-778510D01*
X+10160Y-1019810D02*
X-2633980Y-1019810D01*
X+10160Y-1261110D02*
X-2633980Y-1261110D01*
D71*
X-412750Y-427990D02*
X-397510Y-443230D01*
X-336550Y-443230D01*
X-321310Y-427990D01*
X-321310Y-412750D01*
X-336550Y-397510D01*
X-397510Y-397510D01*
X-412750Y-382270D01*
X-412750Y-367030D01*
X-397510Y-351790D01*
X-336550Y-351790D01*
X-321310Y-367030D01*
X-199390Y-351790D02*
X-290830Y-443230D01*
X-290830Y-351790D02*
X-245110Y-397510D01*
X-168910Y-443230D02*
X-168910Y-351790D01*
X-123190Y-397510D01*
X-77470Y-351790D01*
X-77470Y-443230D01*
X-1002030Y-427990D02*
X-986790Y-443230D01*
X-925830Y-443230D01*
X-910590Y-427990D01*
X-910590Y-412750D01*
X-925830Y-397510D01*
X-986790Y-397510D01*
X-1002030Y-382270D01*
X-1002030Y-367030D01*
X-986790Y-351790D01*
X-925830Y-351790D01*
X-910590Y-367030D01*
X-864870Y-351790D02*
X-803910Y-351790D01*
X-834390Y-351790D02*
X-834390Y-443230D01*
X-864870Y-443230D02*
X-803910Y-443230D01*
X-758190Y-351790D02*
X-666750Y-351790D01*
X-758190Y-443230D01*
X-666750Y-443230D01*
X-544830Y-443230D02*
X-636270Y-443230D01*
X-636270Y-351790D01*
X-544830Y-351790D01*
X-636270Y-397510D02*
X-575310Y-397510D01*
X-2058670Y-443230D02*
X-2058670Y-351790D01*
X-1982470Y-351790D01*
X-1967230Y-367030D01*
X-1967230Y-382270D01*
X-1982470Y-397510D01*
X-2058670Y-397510D01*
X-1936750Y-351790D02*
X-1936750Y-443230D01*
X-1845310Y-443230D01*
X-1814830Y-443230D02*
X-1814830Y-382270D01*
X-1784350Y-351790D01*
X-1753870Y-351790D01*
X-1723390Y-382270D01*
X-1723390Y-443230D01*
X-1814830Y-412750D02*
X-1723390Y-412750D01*
X-1692910Y-351790D02*
X-1601470Y-351790D01*
X-1647190Y-351790D02*
X-1647190Y-443230D01*
X-1479550Y-443230D02*
X-1570990Y-443230D01*
X-1570990Y-351790D01*
X-1479550Y-351790D01*
X-1570990Y-397510D02*
X-1510030Y-397510D01*
X-1449070Y-443230D02*
X-1449070Y-351790D01*
X-1388110Y-351790D01*
X-1357630Y-382270D01*
X-1357630Y-412750D01*
X-1388110Y-443230D01*
X-1449070Y-443230D01*
X-2526030Y-382270D02*
X-2495550Y-351790D01*
X-2465070Y-351790D01*
X-2434590Y-382270D01*
X-2434590Y-412750D01*
X-2465070Y-443230D01*
X-2495550Y-443230D01*
X-2526030Y-412750D01*
X-2526030Y-382270D01*
X-2465070Y-412750D02*
X-2434590Y-443230D01*
X-2404110Y-351790D02*
X-2312670Y-351790D01*
X-2358390Y-351790D02*
X-2358390Y-443230D01*
X-2190750Y-351790D02*
X-2282190Y-443230D01*
X-2282190Y-351790D02*
X-2236470Y-397510D01*
D70*
X-236220Y-588010D02*
X-236220Y-715010D01*
X-172720Y-651510D02*
X-299720Y-651510D01*
D71*
X-1244600Y-676910D02*
X-1244600Y-626110D01*
X-1231900Y-613410D01*
X-1181100Y-613410D01*
X-1168400Y-626110D01*
X-1168400Y-676910D01*
X-1181100Y-689610D01*
X-1231900Y-689610D01*
X-1244600Y-676910D01*
X-1244600Y-689610D02*
X-1168400Y-613410D01*
X-1104900Y-676910D02*
X-1092200Y-676910D01*
X-1092200Y-689610D01*
X-1104900Y-689610D01*
X-1104900Y-676910D01*
X-1028700Y-613410D02*
X-965200Y-613410D01*
X-965200Y-626110D01*
X-1028700Y-689610D01*
X-863600Y-626110D02*
X-876300Y-613410D01*
X-914400Y-613410D01*
X-927100Y-626110D01*
X-927100Y-676910D01*
X-914400Y-689610D01*
X-876300Y-689610D01*
X-863600Y-676910D01*
X-863600Y-664210D01*
X-876300Y-651510D01*
X-927100Y-651510D01*
X-825500Y-626110D02*
X-812800Y-613410D01*
X-774700Y-613410D01*
X-762000Y-626110D01*
X-762000Y-638810D01*
X-774700Y-651510D01*
X-812800Y-651510D01*
X-825500Y-664210D01*
X-825500Y-689610D01*
X-762000Y-689610D01*
X-736600Y-689610D02*
X-736600Y-638810D01*
X-736600Y-651510D02*
X-723900Y-638810D01*
X-698500Y-664210D01*
X-673100Y-638810D01*
X-660400Y-651510D01*
X-660400Y-689610D01*
X-635000Y-689610D02*
X-635000Y-638810D01*
X-635000Y-651510D02*
X-622300Y-638810D01*
X-596900Y-664210D01*
X-571500Y-638810D01*
X-558800Y-651510D01*
X-558800Y-689610D01*
X-1587500Y-613410D02*
X-1663700Y-689610D01*
X-1663700Y-613410D02*
X-1625600Y-651510D01*
X-1485900Y-689610D02*
X-1562100Y-689610D01*
X-1562100Y-613410D01*
X-1485900Y-613410D01*
X-1562100Y-651510D02*
X-1511300Y-651510D01*
X-1460500Y-676910D02*
X-1447800Y-689610D01*
X-1397000Y-689610D01*
X-1384300Y-676910D01*
X-1384300Y-664210D01*
X-1397000Y-651510D01*
X-1447800Y-651510D01*
X-1460500Y-638810D01*
X-1460500Y-626110D01*
X-1447800Y-613410D01*
X-1397000Y-613410D01*
X-1384300Y-626110D01*
X-2382520Y-638810D02*
X-2357120Y-613410D01*
X-2357120Y-689610D01*
X-2230120Y-664210D02*
X-2306320Y-664210D01*
X-2255520Y-613410D01*
X-2255520Y-689610D01*
D70*
X-191319Y-847909D02*
X-281121Y-937711D01*
X-191319Y-937711D02*
X-281121Y-847909D01*
D71*
X-1219200Y-880110D02*
X-1193800Y-854710D01*
X-1193800Y-930910D01*
X-1104900Y-918210D02*
X-1092200Y-918210D01*
X-1092200Y-930910D01*
X-1104900Y-930910D01*
X-1104900Y-918210D01*
X-1041400Y-918210D02*
X-1041400Y-867410D01*
X-1028700Y-854710D01*
X-977900Y-854710D01*
X-965200Y-867410D01*
X-965200Y-918210D01*
X-977900Y-930910D01*
X-1028700Y-930910D01*
X-1041400Y-918210D01*
X-1041400Y-930910D02*
X-965200Y-854710D01*
X-914400Y-880110D02*
X-889000Y-854710D01*
X-889000Y-930910D01*
X-762000Y-867410D02*
X-774700Y-854710D01*
X-812800Y-854710D01*
X-825500Y-867410D01*
X-825500Y-918210D01*
X-812800Y-930910D01*
X-774700Y-930910D01*
X-762000Y-918210D01*
X-762000Y-905510D01*
X-774700Y-892810D01*
X-825500Y-892810D01*
X-736600Y-930910D02*
X-736600Y-880110D01*
X-736600Y-892810D02*
X-723900Y-880110D01*
X-698500Y-905510D01*
X-673100Y-880110D01*
X-660400Y-892810D01*
X-660400Y-930910D01*
X-635000Y-930910D02*
X-635000Y-880110D01*
X-635000Y-892810D02*
X-622300Y-880110D01*
X-596900Y-905510D01*
X-571500Y-880110D01*
X-558800Y-892810D01*
X-558800Y-930910D01*
X-1587500Y-854710D02*
X-1663700Y-930910D01*
X-1663700Y-854710D02*
X-1625600Y-892810D01*
X-1485900Y-930910D02*
X-1562100Y-930910D01*
X-1562100Y-854710D01*
X-1485900Y-854710D01*
X-1562100Y-892810D02*
X-1511300Y-892810D01*
X-1460500Y-918210D02*
X-1447800Y-930910D01*
X-1397000Y-930910D01*
X-1384300Y-918210D01*
X-1384300Y-905510D01*
X-1397000Y-892810D01*
X-1447800Y-892810D01*
X-1460500Y-880110D01*
X-1460500Y-867410D01*
X-1447800Y-854710D01*
X-1397000Y-854710D01*
X-1384300Y-867410D01*
X-2382520Y-880110D02*
X-2357120Y-854710D01*
X-2357120Y-930910D01*
X-2293620Y-867410D02*
X-2280920Y-854710D01*
X-2242820Y-854710D01*
X-2230120Y-867410D01*
X-2230120Y-880110D01*
X-2242820Y-892810D01*
X-2280920Y-892810D01*
X-2293620Y-905510D01*
X-2293620Y-930910D01*
X-2230120Y-930910D01*
D70*
X-236220Y-1070610D02*
X-236220Y-1197610D01*
X-172720Y-1134110D02*
X-299720Y-1134110D01*
X-191319Y-1089209D02*
X-281121Y-1179011D01*
X-191319Y-1179011D02*
X-281121Y-1089209D01*
D71*
X-1219200Y-1121410D02*
X-1193800Y-1096010D01*
X-1193800Y-1172210D01*
X-1104900Y-1159510D02*
X-1092200Y-1159510D01*
X-1092200Y-1172210D01*
X-1104900Y-1172210D01*
X-1104900Y-1159510D01*
X-965200Y-1096010D02*
X-1028700Y-1096010D01*
X-1028700Y-1121410D01*
X-977900Y-1121410D01*
X-965200Y-1134110D01*
X-965200Y-1159510D01*
X-977900Y-1172210D01*
X-1016000Y-1172210D01*
X-1028700Y-1159510D01*
X-927100Y-1108710D02*
X-914400Y-1096010D01*
X-876300Y-1096010D01*
X-863600Y-1108710D01*
X-863600Y-1121410D01*
X-876300Y-1134110D01*
X-914400Y-1134110D01*
X-927100Y-1146810D01*
X-927100Y-1172210D01*
X-863600Y-1172210D01*
X-762000Y-1146810D02*
X-838200Y-1146810D01*
X-787400Y-1096010D01*
X-787400Y-1172210D01*
X-736600Y-1172210D02*
X-736600Y-1121410D01*
X-736600Y-1134110D02*
X-723900Y-1121410D01*
X-698500Y-1146810D01*
X-673100Y-1121410D01*
X-660400Y-1134110D01*
X-660400Y-1172210D01*
X-635000Y-1172210D02*
X-635000Y-1121410D01*
X-635000Y-1134110D02*
X-622300Y-1121410D01*
X-596900Y-1146810D01*
X-571500Y-1121410D01*
X-558800Y-1134110D01*
X-558800Y-1172210D01*
X-1587500Y-1096010D02*
X-1663700Y-1172210D01*
X-1663700Y-1096010D02*
X-1625600Y-1134110D01*
X-1485900Y-1172210D02*
X-1562100Y-1172210D01*
X-1562100Y-1096010D01*
X-1485900Y-1096010D01*
X-1562100Y-1134110D02*
X-1511300Y-1134110D01*
X-1460500Y-1159510D02*
X-1447800Y-1172210D01*
X-1397000Y-1172210D01*
X-1384300Y-1159510D01*
X-1384300Y-1146810D01*
X-1397000Y-1134110D01*
X-1447800Y-1134110D01*
X-1460500Y-1121410D01*
X-1460500Y-1108710D01*
X-1447800Y-1096010D01*
X-1397000Y-1096010D01*
X-1384300Y-1108710D01*
X-2395220Y-1108710D02*
X-2382520Y-1096010D01*
X-2344420Y-1096010D01*
X-2331720Y-1108710D01*
X-2331720Y-1121410D01*
X-2344420Y-1134110D01*
X-2382520Y-1134110D01*
X-2395220Y-1146810D01*
X-2395220Y-1172210D01*
X-2331720Y-1172210D01*
X-2230120Y-1146810D02*
X-2306320Y-1146810D01*
X-2255520Y-1096010D01*
X-2255520Y-1172210D01*
D70*
X-172720Y-1375410D02*
X-172945Y-1370075D01*
X-174771Y-1359403D01*
X-178596Y-1348731D01*
X-184867Y-1338059D01*
X-194440Y-1327591D01*
X-205112Y-1320052D01*
X-215784Y-1315288D01*
X-226456Y-1312665D01*
X-236220Y-1311910D01*
X-299720Y-1375410D02*
X-299495Y-1370075D01*
X-297669Y-1359403D01*
X-293844Y-1348731D01*
X-287573Y-1338059D01*
X-278000Y-1327591D01*
X-267328Y-1320052D01*
X-256656Y-1315288D01*
X-245984Y-1312665D01*
X-236220Y-1311910D01*
X-299720Y-1375410D02*
X-299495Y-1380745D01*
X-297669Y-1391417D01*
X-293844Y-1402089D01*
X-287573Y-1412761D01*
X-278000Y-1423229D01*
X-267328Y-1430768D01*
X-256656Y-1435532D01*
X-245984Y-1438155D01*
X-236220Y-1438910D01*
X-172720Y-1375410D02*
X-172945Y-1380745D01*
X-174771Y-1391417D01*
X-178596Y-1402089D01*
X-184867Y-1412761D01*
X-194440Y-1423229D01*
X-205112Y-1430768D01*
X-215784Y-1435532D01*
X-226456Y-1438155D01*
X-236220Y-1438910D01*
X-236220Y-1311910D02*
X-236220Y-1438910D01*
X-172720Y-1375410D02*
X-299720Y-1375410D01*
D71*
X-762000Y-1388110D02*
X-838200Y-1388110D01*
X-787400Y-1337310D01*
X-787400Y-1413510D01*
X-736600Y-1413510D02*
X-736600Y-1362710D01*
X-736600Y-1375410D02*
X-723900Y-1362710D01*
X-698500Y-1388110D01*
X-673100Y-1362710D01*
X-660400Y-1375410D01*
X-660400Y-1413510D01*
X-635000Y-1413510D02*
X-635000Y-1362710D01*
X-635000Y-1375410D02*
X-622300Y-1362710D01*
X-596900Y-1388110D01*
X-571500Y-1362710D01*
X-558800Y-1375410D01*
X-558800Y-1413510D01*
X-1587500Y-1337310D02*
X-1663700Y-1413510D01*
X-1663700Y-1337310D02*
X-1625600Y-1375410D01*
X-1485900Y-1413510D02*
X-1562100Y-1413510D01*
X-1562100Y-1337310D01*
X-1485900Y-1337310D01*
X-1562100Y-1375410D02*
X-1511300Y-1375410D01*
X-1460500Y-1400810D02*
X-1447800Y-1413510D01*
X-1397000Y-1413510D01*
X-1384300Y-1400810D01*
X-1384300Y-1388110D01*
X-1397000Y-1375410D01*
X-1447800Y-1375410D01*
X-1460500Y-1362710D01*
X-1460500Y-1350010D01*
X-1447800Y-1337310D01*
X-1397000Y-1337310D01*
X-1384300Y-1350010D01*
X-2230120Y-1388110D02*
X-2306320Y-1388110D01*
X-2255520Y-1337310D01*
X-2255520Y-1413510D01*
M02*
