M48
METRIC,TZ
T01C1.5240
T02C1.0160
T03C0.7620
T04C4.0000
%
T01
X-12500Y+60000
X-17580Y+60000
X-22660Y+60000
X-37500Y+60000
X-42580Y+60000
X-47660Y+60000
X-62500Y+60000
X-67580Y+60000
X-72660Y+60000
X-11500Y+34500
X-23500Y+34500
X-17500Y+32500
X-23500Y+47000
X-11500Y+47000
X-36500Y+34500
X-48500Y+34500
X-42500Y+32500
X-48500Y+47000
X-36500Y+47000
X-61500Y+34500
X-73500Y+34500
X-67500Y+32500
X-73500Y+47000
X-61500Y+47000
T02
X-22660Y+25000
X-12500Y+25000
X-47660Y+25000
X-37500Y+25000
X-72660Y+25000
X-62500Y+25000
X-30420Y+11000
X-32960Y+11000
X-35500Y+11000
X-51000Y+11000
X-53540Y+11000
X-56080Y+11000
T03
X-15968Y+17500
X-18000Y+17500
X-20032Y+17500
X-13000Y+13000
X-23160Y+13000
X-13000Y+8000
X-23160Y+8000
X-65968Y+17500
X-68000Y+17500
X-70032Y+17500
X-62840Y+13000
X-73000Y+13000
X-62840Y+8000
X-73000Y+8000
T04
X-5000Y+5000
X-82500Y+5000
X-5000Y+67500
X-82500Y+67500
M30
