M48
METRIC,TZ
T01C1.5240
T02C1.0160
T03C0.7620
%
T01
X-9920Y+8000
X-15000Y+8000
X-39420Y+62500
X-44500Y+62500
X-49580Y+62500
X-84420Y+62500
X-89500Y+62500
X-94580Y+62500
X-61920Y+62500
X-67000Y+62500
X-72080Y+62500
X-38420Y+37000
X-50420Y+37000
X-44420Y+35000
X-50420Y+49500
X-38420Y+49500
X-60920Y+37000
X-72920Y+37000
X-66920Y+35000
X-72920Y+49500
X-60920Y+49500
X-83420Y+37000
X-95420Y+37000
X-89420Y+35000
X-95420Y+49500
X-83420Y+49500
X-59420Y+7500
X-64500Y+7500
X-74420Y+7500
X-79500Y+7500
X-89420Y+7500
X-94500Y+7500
X-28460Y+7500
X-23380Y+7500
X-25920Y+4960
X-39960Y+7500
X-34880Y+7500
X-37420Y+4960
T02
X-9920Y+17000
X-14920Y+17000
X-4920Y+47000
X-19920Y+47000
X-55920Y+58000
X-55920Y+55460
X-33420Y+58000
X-33420Y+55460
X-17420Y+62000
X-19960Y+62000
T03
X-69420Y+14000
X-69420Y+3840
X-84420Y+14000
X-84420Y+3840
X-86920Y+14000
X-97080Y+14000
X-44420Y+30500
X-50770Y+30500
X-66420Y+30500
X-72770Y+30500
X-88920Y+30500
X-95270Y+30500
X-61952Y+29000
X-59920Y+29000
X-57888Y+29000
X-39452Y+29000
X-37420Y+29000
X-35388Y+29000
X-55420Y+31660
X-55420Y+21500
X-78420Y+31660
X-78420Y+21500
X-56920Y+14000
X-67080Y+14000
X-71920Y+14000
X-82080Y+14000
X-68420Y+21000
X-68420Y+17190
X-83420Y+21000
X-83420Y+17190
X-52920Y+7500
X-52920Y+10040
X-52920Y+12580
X-52920Y+15120
X-45300Y+15120
X-45300Y+12580
X-45300Y+10040
X-45300Y+7500
X-36920Y+13000
X-36920Y+15540
X-36920Y+18080
X-36920Y+20620
X-29300Y+20620
X-29300Y+18080
X-29300Y+15540
X-29300Y+13000
X-24420Y+18000
X-24420Y+24350
X-42420Y+13550
X-42420Y+19900
X-40920Y+22000
X-51080Y+22000
X-26920Y+31000
X-26920Y+20840
X-54420Y+44000
X-54420Y+33840
X-56920Y+44000
X-56920Y+33840
X-76920Y+44000
X-76920Y+33840
X-34420Y+44000
X-34420Y+33840
X-59420Y+16420
X-59420Y+21500
X-12420Y+52500
X-12420Y+55040
X-12420Y+57580
X-12420Y+60120
X-12420Y+62660
X-12420Y+65200
X-12420Y+67740
X-4800Y+67740
X-4800Y+65200
X-4800Y+62660
X-4800Y+60120
X-4800Y+57580
X-4800Y+55040
X-4800Y+52500
X-23920Y+49500
X-23920Y+46960
X-23920Y+44420
X-23920Y+41880
X-23920Y+39340
X-23920Y+36800
X-23920Y+34260
X-31540Y+34260
X-31540Y+36800
X-31540Y+39340
X-31540Y+41880
X-31540Y+44420
X-31540Y+46960
X-31540Y+49500
X-16920Y+50380
X-16920Y+58000
X-4800Y+50500
X-12420Y+50500
X-23420Y+62000
X-33580Y+62000
X-39000Y+23800
X-33920Y+23800
X-28500Y+10500
X-23420Y+10500
X-47420Y+4500
X-51230Y+4500
X-19920Y+13500
X-19920Y+3340
X-41080Y+10500
X-30920Y+10500
X-18220Y+54400
X-24570Y+54400
X-19420Y+56300
X-25770Y+56300
X-28040Y+51900
X-20420Y+51900
X-86500Y+26500
X-92850Y+26500
X-92850Y+22055
X-86500Y+22055
M30
