G04 PROTEUS RS274X GERBER FILE*
%FSLAX45Y45*%
%MOMM*%
G01*
%ADD10C,2.540000*%
%ADD11C,1.778000*%
%ADD12C,0.635000*%
%ADD13C,3.048000*%
%ADD14C,2.540000*%
%ADD15C,2.286000*%
%ADD16C,1.778000*%
%ADD17C,1.524000*%
%ADD18R,1.270000X1.270000*%
%ADD19C,1.270000*%
%ADD70R,2.032000X2.032000*%
%ADD71C,2.032000*%
%ADD20C,0.203200*%
D10*
X-3842000Y+4950000D02*
X-3842000Y+6150000D01*
X-3942000Y+6250000D01*
X-5042000Y+4950000D02*
X-5042000Y+6166000D01*
X-4958000Y+6250000D01*
X-4442000Y+3500000D02*
X-4442000Y+6242000D01*
X-4450000Y+6250000D01*
X-6092000Y+4950000D02*
X-6092000Y+6150000D01*
X-6192000Y+6250000D01*
X-8342000Y+4950000D02*
X-8342000Y+6150000D01*
X-8442000Y+6250000D01*
X-9542000Y+4950000D02*
X-9542000Y+6166000D01*
X-9458000Y+6250000D01*
X-7292000Y+4950000D02*
X-7292000Y+6166000D01*
X-7208000Y+6250000D01*
X-6692000Y+3500000D02*
X-6692000Y+6242000D01*
X-6700000Y+6250000D01*
X-8942000Y+3500000D02*
X-8942000Y+6242000D01*
X-8950000Y+6250000D01*
D11*
X-992000Y+800000D02*
X-992000Y+1700000D01*
X-1500000Y+800000D02*
X-1500000Y+1692000D01*
X-1492000Y+1700000D01*
D12*
X-8942000Y+750000D02*
X-8942000Y+550000D01*
X-8776000Y+384000D01*
X-8442000Y+384000D01*
X-6942000Y+384000D01*
X-5942000Y+750000D02*
X-6192000Y+1000000D01*
X-6842000Y+1000000D01*
X-6942000Y+1100000D01*
X-6942000Y+1400000D01*
X-7950000Y+750000D02*
X-8192000Y+750000D01*
X-8442000Y+1000000D01*
X-8442000Y+1400000D01*
X-9708000Y+1400000D02*
X-9708000Y+1008000D01*
X-9450000Y+750000D01*
X-8692000Y+1400000D02*
X-8692000Y+950000D01*
X-8242000Y+500000D01*
X-7692000Y+500000D01*
X-7442000Y+750000D01*
X-5042000Y+3700000D02*
X-5077000Y+3665000D01*
X-5077000Y+3050000D01*
D10*
X-8942000Y+3500000D02*
X-8942000Y+6242000D01*
X-8950000Y+6250000D01*
D12*
X-7192000Y+3600000D02*
X-7292000Y+3500000D01*
X-7292000Y+3700000D02*
X-7292000Y+3500000D01*
X-7192000Y+3600000D02*
X-7292000Y+3700000D01*
X-9442000Y+3600000D02*
X-9542000Y+3500000D01*
X-9542000Y+3700000D02*
X-9542000Y+3500000D01*
X-9542000Y+3065000D01*
X-9527000Y+3050000D01*
X-9542000Y+3700000D02*
X-9542000Y+3500000D01*
X-9542000Y+3065000D01*
X-9527000Y+3050000D01*
X-9442000Y+3600000D02*
X-9542000Y+3700000D01*
X-7292000Y+3500000D02*
X-7292000Y+3065000D01*
X-7277000Y+3050000D01*
D10*
X-8942000Y+3500000D02*
X-8942000Y+6242000D01*
X-8950000Y+6250000D01*
D12*
X-8342000Y+3700000D02*
X-8342000Y+3402357D01*
X-8684409Y+3059948D01*
X-8932052Y+3059948D01*
X-8892000Y+3050000D01*
X-6742000Y+379651D02*
X-6742000Y+300000D01*
X-3842000Y+3700000D02*
X-3842000Y+3402357D01*
X-3943178Y+3301178D01*
X-3993178Y+3251178D01*
X-4093178Y+3151178D02*
X-4184409Y+3059948D01*
X-4432052Y+3059948D01*
X-4442000Y+3050000D01*
X-4043178Y+3201178D02*
X-4043178Y+3101178D01*
X-4042000Y+3100000D01*
X-3945200Y+2900000D02*
X-3945200Y+3003200D01*
X-4042000Y+3100000D01*
X-4043178Y+3101178D02*
X-4093178Y+3151178D01*
X-3993178Y+3251178D02*
X-4043178Y+3201178D01*
X-4093178Y+3151178D01*
X-4143178Y+3101178D02*
X-4043178Y+3101178D01*
X-6292000Y+3200000D02*
X-6292000Y+3100000D01*
X-6195200Y+2900000D02*
X-6195200Y+3003200D01*
X-6292000Y+3100000D01*
X-6342000Y+3150000D01*
X-6092000Y+3700000D02*
X-6092000Y+3400000D01*
X-6292000Y+3200000D01*
X-6342000Y+3150000D01*
X-6392000Y+3100000D02*
X-6292000Y+3100000D01*
X-6342000Y+3150000D02*
X-6392000Y+3100000D01*
X-6442000Y+3050000D01*
X-6642000Y+3050000D01*
X-6742000Y+300000D02*
X-6842000Y+200000D01*
X-9642000Y+200000D01*
X-9892000Y+450000D01*
X-9892000Y+2450000D01*
X-9492000Y+2850000D01*
X-9092000Y+2850000D01*
X-8892000Y+3050000D01*
X-5792000Y+2500000D02*
X-5792000Y+2896800D01*
X-5788800Y+2900000D01*
X-5742000Y+2400000D02*
X-5792000Y+2450000D01*
X-5792000Y+2500000D02*
X-5792000Y+2450000D01*
X-5792000Y+2400000D01*
X-5692000Y+2400000D02*
X-5742000Y+2400000D01*
X-5792000Y+2400000D01*
X-5842000Y+2400000D02*
X-5792000Y+2450000D01*
X-5792000Y+2400000D02*
X-5842000Y+2400000D01*
X-5892000Y+2400000D01*
X-7292000Y+3700000D02*
X-7792000Y+3700000D01*
X-7842000Y+3700000D01*
X-7892000Y+3700000D01*
X-5042000Y+3700000D02*
X-5542000Y+3700000D01*
X-5592000Y+3700000D01*
X-5642000Y+3700000D01*
X-5542000Y+2150000D02*
X-5558000Y+2166000D01*
X-5652810Y+2400000D02*
X-5692000Y+2400000D01*
X-5542000Y+2150000D02*
X-5526000Y+2166000D01*
X-8442000Y+1400000D02*
X-8208000Y+1400000D01*
X-6942000Y+1400000D02*
X-6708000Y+1400000D01*
X-7192000Y+1400000D02*
X-7742000Y+1400000D01*
X-8061000Y+1719000D01*
X-8342000Y+1719000D01*
X-5692000Y+1400000D02*
X-6242000Y+1400000D01*
X-6561000Y+1719000D01*
X-6842000Y+1719000D01*
X-2438000Y+200000D02*
X-2442000Y+200000D01*
D11*
X-3492000Y+200000D02*
X-3392000Y+200000D01*
D12*
X-3588000Y+200000D02*
X-3588378Y+200000D01*
D11*
X-3588000Y+200000D02*
X-3492000Y+200000D01*
D12*
X-5692000Y+1400000D02*
X-5692000Y+1150000D01*
X-5546000Y+1004000D01*
X-5292000Y+1004000D01*
X-2592000Y+750000D02*
X-2592000Y+1463167D01*
X-2811124Y+1682291D01*
X-3224291Y+1682291D01*
X-3350000Y+1808000D01*
X-3692000Y+1808000D01*
X-2930000Y+1808000D02*
X-2450000Y+1808000D01*
X-2442000Y+1800000D01*
X-4342000Y+1800000D02*
X-4138000Y+1800000D01*
X-3892000Y+1554000D01*
X-3692000Y+1554000D02*
X-3892000Y+1554000D01*
X-2442000Y+2435000D02*
X-2692000Y+2685000D01*
X-2692000Y+3100000D01*
X-5108000Y+2350000D02*
X-5158000Y+2400000D01*
X-5192000Y+2400000D01*
X-5108000Y+2200000D02*
X-5108000Y+2350000D01*
X-5108000Y+2400000D01*
X-5158000Y+2400000D01*
X-5108000Y+2350000D02*
X-5058000Y+2400000D01*
X-5108000Y+2400000D01*
X-5542000Y+2150000D02*
X-5542000Y+2166000D01*
X-5526000Y+2166000D02*
X-5542000Y+2166000D01*
X-5558000Y+2166000D01*
X-5542000Y+2350000D02*
X-5492000Y+2400000D01*
X-5542000Y+2166000D02*
X-5542000Y+2350000D01*
X-5542000Y+2390011D01*
X-5551989Y+2400000D01*
X-5192000Y+2400000D02*
X-5492000Y+2400000D01*
X-5551989Y+2400000D01*
X-5542000Y+2350000D02*
X-5592000Y+2400000D01*
X-5652810Y+2400000D01*
X-5551989Y+2400000D02*
X-5592000Y+2400000D01*
X-7842000Y+2350000D02*
X-7792000Y+2400000D01*
X-7782145Y+2400000D01*
X-7842000Y+2150000D02*
X-7842000Y+2350000D01*
X-7842000Y+2400000D01*
X-7792000Y+2400000D02*
X-7842000Y+2400000D01*
X-7842000Y+2350000D02*
X-7892000Y+2400000D01*
X-7842000Y+2400000D02*
X-7892000Y+2400000D01*
X-5442000Y+3384000D02*
X-5442000Y+3266000D01*
X-5542000Y+3166000D01*
X-7692000Y+3384000D02*
X-7692000Y+3316000D01*
X-7842000Y+3166000D01*
X-5992000Y+2900000D02*
X-5992000Y+2750000D01*
X-6092000Y+2650000D01*
X-7326000Y+2650000D01*
X-7842000Y+3166000D01*
X-6092000Y+3700000D02*
X-5776000Y+3384000D01*
X-5692000Y+3384000D01*
X-3442000Y+3384000D02*
X-3526000Y+3384000D01*
X-3842000Y+3700000D01*
X-5592000Y+5546000D02*
X-5592000Y+4700000D01*
X-5692000Y+4600000D01*
X-5692000Y+4400000D01*
X-6064828Y+4050000D02*
X-6014828Y+4000000D01*
X-5992000Y+4000000D01*
X-5592000Y+5800000D02*
X-5642000Y+5800000D01*
X-5792000Y+5650000D01*
X-5792000Y+4750000D01*
X-5992000Y+4550000D01*
X-6064828Y+4477172D01*
X-6064828Y+4050000D01*
X-6064828Y+4000000D01*
X-5642000Y+3700000D02*
X-5942000Y+4000000D01*
X-5992000Y+4000000D01*
X-6014828Y+4000000D02*
X-6064828Y+4000000D01*
X-6064828Y+4050000D02*
X-6114828Y+4000000D01*
X-6162101Y+4000000D01*
X-6064828Y+4000000D02*
X-6114828Y+4000000D01*
X-6162101Y+4000000D02*
X-6192000Y+4000000D01*
X-6342000Y+3850000D01*
X-6342000Y+3450000D01*
X-6542000Y+3250000D01*
X-6842000Y+3250000D01*
X-7192000Y+3600000D01*
X-5292000Y+1512000D02*
X-5422000Y+1642000D01*
X-5942000Y+1642000D01*
X-5892000Y+2400000D02*
X-5942000Y+2400000D01*
X-5942000Y+2350000D02*
X-5892000Y+2400000D01*
X-5942000Y+2150000D02*
X-5942000Y+2350000D01*
X-5942000Y+2400000D01*
X-5942000Y+2350000D02*
X-5992000Y+2400000D01*
X-6023871Y+2400000D01*
X-5942000Y+2400000D02*
X-5992000Y+2400000D01*
X-6023871Y+2400000D02*
X-7782145Y+2400000D01*
X-1492000Y+5300000D02*
X-1442000Y+5250000D01*
X-1442000Y+5247998D01*
X-1492000Y+5300000D02*
X-1492000Y+5247998D01*
X-1442000Y+5247998D01*
X-1244002Y+5247998D01*
X-1242000Y+5250000D01*
X-1492000Y+5300000D02*
X-1544002Y+5247998D01*
X-1492000Y+5247998D01*
D11*
X-1992000Y+4700000D02*
X-1692000Y+5000000D01*
X-1692000Y+5038000D01*
D12*
X-480000Y+5250000D02*
X-480000Y+5050000D01*
X-1742000Y+6200000D02*
X-1692000Y+6200000D01*
X-1692000Y+5800000D02*
X-1692000Y+6200000D01*
X-1996000Y+6200000D02*
X-2342000Y+6200000D01*
X-3342000Y+5546000D02*
X-3342000Y+5150000D01*
X-3442000Y+5050000D01*
X-3442000Y+4400000D01*
X-8942000Y+1500000D02*
X-8942000Y+750000D01*
X-6842000Y+2100000D02*
X-6992000Y+2100000D01*
X-7292000Y+1800000D01*
X-7942000Y+1800000D01*
X-8242000Y+2100000D01*
X-8342000Y+2100000D01*
X-4392000Y+1850000D02*
X-6492000Y+1850000D01*
X-6542000Y+1900000D01*
X-4342000Y+1800000D02*
X-4392000Y+1850000D01*
X-6542000Y+1900000D02*
X-6942000Y+1900000D01*
X-7192000Y+1650000D01*
X-7192000Y+1400000D01*
X-3538800Y+2900000D02*
X-3538800Y+2700000D01*
X-3690400Y+2548400D01*
X-3742000Y+2900000D02*
X-3742000Y+2790000D01*
X-3832000Y+2700000D01*
X-5076000Y+2700000D01*
X-5542000Y+3166000D01*
X-3690400Y+2548400D02*
X-3692000Y+2550000D01*
X-4908000Y+2550000D01*
X-5058000Y+2400000D01*
X-3692000Y+2062000D02*
X-3692000Y+2300000D01*
X-3692000Y+2550000D02*
X-3692000Y+2300000D01*
X-3900000Y+2380000D02*
X-4312000Y+2380000D01*
X-4342000Y+2350000D01*
X-2942000Y+2250000D02*
X-2892000Y+2200000D01*
X-2942000Y+2250000D02*
X-2942000Y+2200000D01*
X-2692000Y+2084000D02*
X-2808000Y+2200000D01*
X-2892000Y+2200000D01*
X-2942000Y+2200000D01*
X-2942000Y+2250000D02*
X-2992000Y+2200000D01*
X-2942000Y+2200000D02*
X-2992000Y+2200000D01*
X-3142000Y+2200000D01*
X-3280000Y+2062000D01*
X-3692000Y+2062000D01*
X-1242000Y+6774000D02*
X-816000Y+6774000D01*
X-692000Y+6650000D01*
X-392000Y+6650000D01*
X-292000Y+6550000D01*
X-292000Y+4900000D01*
X-492000Y+4700000D01*
X-5042000Y+3700000D02*
X-4579430Y+3237430D01*
X-4350753Y+3237430D01*
X-4092000Y+3496183D01*
X-4092000Y+3500000D01*
X-4092000Y+4250000D01*
X-3542000Y+4800000D01*
X-3542000Y+5750000D01*
X-3492000Y+5800000D02*
X-3542000Y+5850000D01*
X-3542000Y+5750000D02*
X-3542000Y+5850000D01*
X-3542000Y+5750000D02*
X-3492000Y+5800000D01*
X-3342000Y+5800000D01*
X-1692000Y+6200000D02*
X-1692000Y+6350000D01*
X-1842000Y+6500000D01*
X-3392000Y+6500000D01*
X-3542000Y+6350000D01*
X-3542000Y+5850000D01*
X-3500248Y+6658248D02*
X-5183752Y+6658248D01*
X-5192000Y+6650000D01*
X-5442000Y+4400000D02*
X-5442000Y+5350000D01*
X-5392000Y+5400000D01*
X-5392000Y+6450000D01*
X-5192000Y+6650000D01*
X-5123000Y+300000D02*
X-5023000Y+200000D01*
X-5123000Y+450000D02*
X-5123000Y+300000D01*
X-5123000Y+201905D01*
X-5121095Y+200000D01*
D11*
X-5023000Y+200000D01*
X-3588378Y+200000D01*
D12*
X-5123000Y+300000D02*
X-5220916Y+202084D01*
X-5220916Y+200000D01*
D11*
X-5121095Y+200000D01*
D12*
X-6531826Y+589826D02*
X-6531825Y+589826D01*
X-6302174Y+589826D01*
X-6296000Y+596000D01*
X-6450000Y+750000D02*
X-6450000Y+671651D01*
X-6531825Y+589826D01*
X-6531826Y+589826D02*
X-6742000Y+379651D01*
D11*
X-6450000Y+750000D02*
X-6296000Y+596000D01*
X-5900000Y+200000D01*
X-5220916Y+200000D01*
D12*
X-6531826Y+589826D02*
X-6692000Y+750000D01*
D11*
X-6450000Y+750000D02*
X-6692000Y+750000D01*
X-7442000Y+750000D01*
D12*
X-480000Y+5050000D02*
X-742000Y+4788000D01*
X-742000Y+3150000D01*
X-2192000Y+1700000D01*
X-2192000Y+1200000D01*
X-2342000Y+1050000D01*
X-2850000Y+1050000D02*
X-2742000Y+1158000D01*
X-2742000Y+1400000D01*
X-2896000Y+1554000D01*
X-2930000Y+1554000D01*
D11*
X-3092000Y+200000D02*
X-2992000Y+200000D01*
X-2442000Y+200000D01*
X-3192000Y+200000D02*
X-3165148Y+200000D01*
X-3092000Y+200000D01*
D12*
X-3165148Y+300000D02*
X-3092000Y+226852D01*
X-3092000Y+200000D01*
X-3092000Y+1050000D02*
X-3165148Y+976852D01*
X-3165148Y+300000D01*
X-3165148Y+200000D01*
X-3165148Y+300000D02*
X-3242000Y+223148D01*
X-3242000Y+200000D01*
D11*
X-3392000Y+200000D02*
X-3242000Y+200000D01*
X-3192000Y+200000D01*
D12*
X-2304000Y+5800000D02*
X-1692000Y+5800000D01*
X-2392000Y+4696000D02*
X-2246000Y+4696000D01*
X-2140000Y+4802000D01*
X-2140000Y+4852000D01*
X-1744002Y+5247998D01*
X-1544002Y+5247998D01*
X-7692000Y+4400000D02*
X-7692000Y+6450000D01*
X-7342000Y+6800000D01*
X-1542000Y+6800000D01*
X-1392000Y+6650000D01*
X-1092000Y+6650000D01*
X-1042000Y+6600000D01*
X-1042000Y+6460488D01*
X-1105735Y+6396753D01*
X-1295247Y+6396753D01*
X-1392000Y+6300000D01*
X-1392000Y+5900000D01*
X-1342000Y+5850000D01*
X-1242000Y+6012000D02*
X-1104000Y+6012000D01*
X-1042000Y+5950000D01*
X-1042000Y+5704981D01*
X-1116780Y+5630201D01*
X-1311799Y+5630201D01*
X-1492000Y+5450000D01*
X-1492000Y+5300000D01*
X-1342000Y+5850000D02*
X-1292000Y+5800000D01*
X-1250000Y+5758000D01*
X-1242000Y+5758000D01*
X-1342000Y+5850000D02*
X-1342000Y+5750000D01*
X-1292000Y+5800000D02*
X-1342000Y+5750000D01*
X-1250000Y+5750000D01*
X-1242000Y+5758000D01*
X-1042000Y+4400000D02*
X-1124044Y+4317956D01*
X-1043802Y+4317956D01*
X-1042000Y+4316154D01*
X-1042000Y+4400000D01*
X-1042000Y+5400000D01*
X-1146000Y+5504000D01*
X-1242000Y+5504000D01*
X-1124044Y+4317956D02*
X-1042000Y+4235912D01*
X-1042000Y+4219730D01*
X-2442000Y+2435000D02*
X-2442000Y+2650000D01*
X-1042000Y+4050000D01*
X-1042000Y+4219730D01*
X-1042000Y+4235912D02*
X-1042000Y+4316154D01*
X-3500248Y+6658248D02*
X-1583752Y+6658248D01*
X-1442202Y+6516699D01*
X-1245301Y+6516699D01*
X-1242000Y+6520000D01*
X-1475450Y+6483450D02*
X-1483752Y+6491752D01*
X-1483752Y+6558248D01*
X-1442202Y+6516699D02*
X-1475450Y+6483450D01*
X-1520522Y+6438379D01*
X-1520522Y+5734675D01*
X-1625197Y+5630000D01*
X-1942000Y+5630000D01*
X-2392000Y+3426000D02*
X-2766000Y+3426000D01*
X-3042000Y+3150000D01*
X-3042000Y+2350000D01*
X-2942000Y+2250000D01*
X-2442000Y+2150000D02*
X-2442000Y+2065002D01*
X-2399501Y+2107501D02*
X-2442000Y+2150000D01*
X-2399501Y+2107501D02*
X-2442000Y+2065002D01*
X-2442000Y+2150000D02*
X-2357002Y+2150000D01*
X-2349501Y+2157501D01*
X-1242000Y+6266000D02*
X-1108000Y+6266000D01*
X-892000Y+6050000D01*
X-892000Y+3900000D01*
X-2242000Y+2550000D01*
X-2242000Y+2265002D01*
X-2349501Y+2157501D01*
X-2357002Y+2150000D02*
X-2399501Y+2107501D01*
X-2457000Y+5440000D02*
X-2292000Y+5440000D01*
X-2212000Y+5360000D01*
X-2212000Y+4910000D01*
X-2302224Y+4819776D01*
X-2522224Y+4819776D01*
X-2592000Y+4750000D01*
X-2592000Y+4400000D01*
X-2509956Y+4317956D01*
X-1124044Y+4317956D01*
X-1342000Y+5750000D02*
X-1652000Y+5440000D01*
X-1822000Y+5440000D01*
X-3247409Y+5055409D02*
X-3247409Y+5294591D01*
X-2892000Y+5650000D01*
X-3358000Y+6200000D02*
X-3192000Y+6200000D01*
X-2892000Y+5900000D01*
X-2892000Y+5650000D01*
X-3247409Y+5055409D02*
X-3292000Y+5010818D01*
X-3292000Y+3146800D01*
X-3538800Y+2900000D01*
X-2772000Y+5600000D02*
X-3154000Y+5218000D01*
X-3154000Y+4950000D01*
X-2304000Y+5800000D02*
X-2672000Y+5800000D01*
X-2772000Y+5700000D01*
X-2772000Y+5600000D01*
X-2042000Y+5190000D02*
X-2042000Y+5430022D01*
X-2241978Y+5630000D01*
X-2577000Y+5630000D01*
X-2392000Y+4950000D02*
X-2592000Y+5150000D01*
X-2592000Y+5250000D01*
X-2692000Y+5350000D01*
X-2892000Y+5350000D01*
X-2992000Y+5250000D01*
X-2992000Y+4800000D01*
X-2892000Y+4700000D01*
X-2892000Y+3450000D01*
X-3157000Y+3185000D01*
X-3157000Y+2615000D01*
X-3392000Y+2380000D01*
X-2442000Y+2150000D02*
X-2892000Y+2600000D01*
X-2892000Y+3150000D01*
X-2742000Y+3300000D01*
X-2342000Y+3300000D01*
X-2192000Y+3450000D01*
X-2192000Y+3962307D01*
X-2292304Y+4062611D01*
X-2604611Y+4062611D01*
X-2742000Y+4200000D01*
X-2742000Y+4745822D01*
X-2804000Y+4807822D01*
X-2804000Y+5190000D01*
X-2850000Y+1050000D02*
X-2850000Y+754000D01*
X-2846000Y+750000D01*
X-2592000Y+750000D02*
X-2592000Y+496000D01*
X-3488000Y+750000D02*
X-3488000Y+896000D01*
X-3642000Y+1050000D01*
X-4108000Y+1050000D01*
X-4276000Y+750000D02*
X-4284000Y+758000D01*
X-4530000Y+1004000D02*
X-4284000Y+758000D01*
X-4284000Y+700000D02*
X-4238018Y+745982D01*
X-4238018Y+750000D01*
X-3996000Y+750000D02*
X-4238018Y+750000D01*
X-4276000Y+750000D01*
X-4284000Y+758000D02*
X-4284000Y+700000D01*
X-4284000Y+608000D01*
X-4442000Y+450000D01*
X-4742000Y+450000D01*
X-4092000Y+2200000D02*
X-4242000Y+2050000D01*
X-4242000Y+1990000D01*
X-4052000Y+1250000D02*
X-4092000Y+1250000D01*
X-4140627Y+1250000D01*
X-4052000Y+1250000D02*
X-3892000Y+1250000D01*
X-3813787Y+1171787D01*
X-3435807Y+1171787D01*
X-3270332Y+1006312D01*
X-3270332Y+544722D01*
X-3319054Y+496000D01*
X-3742000Y+496000D01*
X-4391994Y+1130965D02*
X-4391937Y+1130965D01*
X-4381935Y+1130965D01*
X-4259662Y+1130965D01*
X-4140627Y+1250000D01*
X-4381935Y+1130965D02*
X-4381995Y+1130905D01*
X-5292000Y+1258000D02*
X-4950000Y+1258000D01*
X-4825582Y+1133582D01*
X-4391994Y+1130965D01*
X-4391937Y+1130965D02*
X-4381995Y+1130905D01*
X-4530000Y+1258000D02*
X-4530000Y+1260000D01*
X-4337000Y+1260000D01*
X-4242000Y+1355000D01*
X-4530000Y+1004000D02*
X-4919518Y+1004000D01*
X-5041597Y+1126079D01*
X-5368079Y+1126079D01*
X-5442000Y+1200000D01*
X-5442000Y+1336143D01*
X-5393349Y+1384794D01*
X-4457206Y+1384794D01*
X-4312000Y+1530000D01*
X-4172000Y+1530000D01*
X-4073186Y+1431186D01*
X-3435901Y+1431186D01*
X-3313087Y+1554000D01*
X-2930000Y+1554000D01*
X-2802000Y+1940000D02*
X-2770361Y+1908361D01*
X-2755880Y+1908361D01*
X-2603639Y+1908361D01*
X-2572000Y+1940000D01*
X-2562000Y+1950000D01*
X-2442000Y+2065002D02*
X-2449501Y+2057501D01*
X-2449501Y+2062499D01*
X-2562000Y+1950000D01*
X-2802000Y+1940000D02*
X-3911095Y+1940000D01*
X-3961095Y+1990000D01*
X-4242000Y+1990000D01*
X-1992000Y+1350000D02*
X-1992000Y+1090000D01*
X-2332000Y+750000D01*
X-2338000Y+750000D01*
D11*
X-1692000Y+200000D02*
X-1765224Y+200000D01*
X-2042000Y+200000D02*
X-2242000Y+200000D01*
X-2342000Y+200000D01*
X-2438000Y+200000D01*
X-1692000Y+200000D02*
X-814014Y+200000D01*
X-612581Y+401433D01*
X-492000Y+522014D01*
X-492000Y+4700000D01*
X-1992000Y+334000D02*
X-1992000Y+300000D01*
X-1992000Y+200000D01*
X-2042000Y+200000D01*
X-1765224Y+200000D02*
X-1842000Y+200000D01*
X-1942000Y+200000D01*
X-1992000Y+200000D01*
X-1454000Y+5038000D02*
X-1792000Y+4700000D01*
X-1992000Y+4700000D02*
X-1792000Y+4700000D01*
X-1592000Y+4700000D01*
X-1254000Y+5038000D01*
X-1692000Y+5038000D02*
X-1454000Y+5038000D01*
X-1254000Y+5038000D01*
X-1242000Y+5050000D01*
D12*
X-8462887Y+2278622D02*
X-8220622Y+2278622D01*
X-7892000Y+1950000D01*
X-7492000Y+1950000D01*
X-7142000Y+2300000D01*
X-6492000Y+2300000D01*
X-6142000Y+1950000D01*
X-4742000Y+1950000D01*
X-4342000Y+2350000D01*
X-8650000Y+2205500D02*
X-8576878Y+2278622D01*
X-8535184Y+2278622D01*
X-8489934Y+2278622D01*
X-8462887Y+2278622D01*
X-8942000Y+1500000D02*
X-8942000Y+1550000D01*
X-9092000Y+2850000D02*
X-9092000Y+2692000D01*
X-8850000Y+2450000D01*
X-8200000Y+2450000D01*
X-8150000Y+2400000D01*
X-7892000Y+2400000D02*
X-8150000Y+2400000D01*
X-9285000Y+2205500D02*
X-9708000Y+1782500D01*
X-9708000Y+1400000D01*
X-7946000Y+3754000D02*
X-7946000Y+3646000D01*
X-7892000Y+3700000D02*
X-7946000Y+3754000D01*
X-8192000Y+4000000D01*
X-8442000Y+4000000D01*
X-8592000Y+3850000D01*
X-8592000Y+3450000D01*
X-8792000Y+3250000D01*
X-9092000Y+3250000D01*
X-9442000Y+3600000D01*
X-7892000Y+3700000D02*
X-7946000Y+3646000D01*
X-8150000Y+3442000D01*
X-8150000Y+2850000D01*
X-8350000Y+2650000D01*
X-8650000Y+2650000D01*
X-8342000Y+2100000D02*
X-8742000Y+1700000D01*
X-8900000Y+1700000D02*
X-8942000Y+1742000D01*
X-8942000Y+1780345D01*
X-8742000Y+1700000D02*
X-8900000Y+1700000D01*
X-8942000Y+1700000D01*
X-8942000Y+1742000D01*
X-8942000Y+1780345D02*
X-8942000Y+2307000D01*
X-9285000Y+2650000D01*
X-8900000Y+1700000D02*
X-8942000Y+1658000D01*
X-8942000Y+1590439D01*
X-8942000Y+1550000D02*
X-8942000Y+1590439D01*
X-8942000Y+1658000D02*
X-8942000Y+1700000D01*
D13*
X-992000Y+800000D03*
X-1500000Y+800000D03*
X-3942000Y+6250000D03*
X-4450000Y+6250000D03*
X-4958000Y+6250000D03*
X-8442000Y+6250000D03*
X-8950000Y+6250000D03*
X-9458000Y+6250000D03*
X-6192000Y+6250000D03*
X-6700000Y+6250000D03*
X-7208000Y+6250000D03*
D14*
X-3842000Y+3700000D03*
X-5042000Y+3700000D03*
X-4442000Y+3500000D03*
X-5042000Y+4950000D03*
X-3842000Y+4950000D03*
X-6092000Y+3700000D03*
X-7292000Y+3700000D03*
X-6692000Y+3500000D03*
X-7292000Y+4950000D03*
X-6092000Y+4950000D03*
X-8342000Y+3700000D03*
X-9542000Y+3700000D03*
X-8942000Y+3500000D03*
X-9542000Y+4950000D03*
X-8342000Y+4950000D03*
D13*
X-5942000Y+750000D03*
X-6450000Y+750000D03*
X-7442000Y+750000D03*
X-7950000Y+750000D03*
X-8942000Y+750000D03*
X-9450000Y+750000D03*
D15*
X-992000Y+1700000D03*
X-1492000Y+1700000D03*
X-492000Y+4700000D03*
X-1992000Y+4700000D03*
D16*
X-6942000Y+1400000D03*
X-6942000Y+384000D03*
X-8442000Y+1400000D03*
X-8442000Y+384000D03*
X-8692000Y+1400000D03*
X-9708000Y+1400000D03*
X-4442000Y+3050000D03*
X-5077000Y+3050000D03*
X-6642000Y+3050000D03*
X-7277000Y+3050000D03*
X-8892000Y+3050000D03*
X-9527000Y+3050000D03*
D17*
X-6195200Y+2900000D03*
X-5992000Y+2900000D03*
X-5788800Y+2900000D03*
X-3945200Y+2900000D03*
X-3742000Y+2900000D03*
X-3538800Y+2900000D03*
D16*
X-5542000Y+3166000D03*
X-5542000Y+2150000D03*
X-7842000Y+3166000D03*
X-7842000Y+2150000D03*
X-5692000Y+1400000D03*
X-6708000Y+1400000D03*
X-7192000Y+1400000D03*
X-8208000Y+1400000D03*
X-6842000Y+2100000D03*
X-6842000Y+1719000D03*
X-8342000Y+2100000D03*
X-8342000Y+1719000D03*
D13*
X-2846000Y+750000D03*
X-2338000Y+750000D03*
X-2592000Y+496000D03*
X-3996000Y+750000D03*
X-3488000Y+750000D03*
X-3742000Y+496000D03*
D18*
X-5292000Y+750000D03*
D19*
X-5292000Y+1004000D03*
X-5292000Y+1258000D03*
X-5292000Y+1512000D03*
X-4530000Y+1512000D03*
X-4530000Y+1258000D03*
X-4530000Y+1004000D03*
X-4530000Y+750000D03*
D18*
X-3692000Y+1300000D03*
D19*
X-3692000Y+1554000D03*
X-3692000Y+1808000D03*
X-3692000Y+2062000D03*
X-2930000Y+2062000D03*
X-2930000Y+1808000D03*
X-2930000Y+1554000D03*
X-2930000Y+1300000D03*
D16*
X-2442000Y+1800000D03*
X-2442000Y+2435000D03*
X-4242000Y+1355000D03*
X-4242000Y+1990000D03*
X-4092000Y+2200000D03*
X-5108000Y+2200000D03*
X-2692000Y+3100000D03*
X-2692000Y+2084000D03*
X-5442000Y+4400000D03*
X-5442000Y+3384000D03*
X-5692000Y+4400000D03*
X-5692000Y+3384000D03*
X-7692000Y+4400000D03*
X-7692000Y+3384000D03*
X-3442000Y+4400000D03*
X-3442000Y+3384000D03*
D70*
X-5592000Y+5800000D03*
X-5592000Y+5546000D03*
X-3342000Y+5800000D03*
X-3342000Y+5546000D03*
D71*
X-5942000Y+1642000D03*
X-5942000Y+2150000D03*
D18*
X-1242000Y+5250000D03*
D19*
X-1242000Y+5504000D03*
X-1242000Y+5758000D03*
X-1242000Y+6012000D03*
X-1242000Y+6266000D03*
X-1242000Y+6520000D03*
X-1242000Y+6774000D03*
X-480000Y+6774000D03*
X-480000Y+6520000D03*
X-480000Y+6266000D03*
X-480000Y+6012000D03*
X-480000Y+5758000D03*
X-480000Y+5504000D03*
X-480000Y+5250000D03*
D18*
X-2392000Y+4950000D03*
D19*
X-2392000Y+4696000D03*
X-2392000Y+4442000D03*
X-2392000Y+4188000D03*
X-2392000Y+3934000D03*
X-2392000Y+3680000D03*
X-2392000Y+3426000D03*
X-3154000Y+3426000D03*
X-3154000Y+3680000D03*
X-3154000Y+3934000D03*
X-3154000Y+4188000D03*
X-3154000Y+4442000D03*
X-3154000Y+4696000D03*
X-3154000Y+4950000D03*
D71*
X-1692000Y+5038000D03*
X-1692000Y+5800000D03*
X-480000Y+5050000D03*
X-1242000Y+5050000D03*
D70*
X-1742000Y+6200000D03*
X-1996000Y+6200000D03*
D16*
X-2342000Y+6200000D03*
X-3358000Y+6200000D03*
D71*
X-3900000Y+2380000D03*
X-3392000Y+2380000D03*
X-2850000Y+1050000D03*
X-2342000Y+1050000D03*
D16*
X-4742000Y+450000D03*
X-5123000Y+450000D03*
X-1992000Y+1350000D03*
X-1992000Y+334000D03*
X-4108000Y+1050000D03*
X-3092000Y+1050000D03*
X-1822000Y+5440000D03*
X-2457000Y+5440000D03*
X-1942000Y+5630000D03*
X-2577000Y+5630000D03*
D71*
X-2804000Y+5190000D03*
X-2042000Y+5190000D03*
X-8650000Y+2650000D03*
X-9285000Y+2650000D03*
X-9285000Y+2205500D03*
X-8650000Y+2205500D03*
D20*
X-9992000Y+0D02*
X+8000Y+0D01*
X+8000Y+7000000D01*
X-9992000Y+7000000D01*
X-9992000Y+0D01*
M02*
