G04 PROTEUS RS274X GERBER FILE*
%FSLAX45Y45*%
%MOMM*%
G01*
%ADD20C,0.203200*%
%ADD21C,0.127000*%
%ADD22C,0.063500*%
D20*
X-992000Y+863500D02*
X-992000Y+736500D01*
X-928500Y+800000D02*
X-1055500Y+800000D01*
X-947099Y+844901D02*
X-1036901Y+755099D01*
X-947099Y+755099D02*
X-1036901Y+844901D01*
X-1500000Y+863500D02*
X-1500000Y+736500D01*
X-1436500Y+800000D02*
X-1563500Y+800000D01*
X-1455099Y+844901D02*
X-1544901Y+755099D01*
X-1455099Y+755099D02*
X-1544901Y+844901D01*
X-3942000Y+6313500D02*
X-3942000Y+6186500D01*
X-3878500Y+6250000D02*
X-4005500Y+6250000D01*
X-3897099Y+6294901D02*
X-3986901Y+6205099D01*
X-3897099Y+6205099D02*
X-3986901Y+6294901D01*
X-4450000Y+6313500D02*
X-4450000Y+6186500D01*
X-4386500Y+6250000D02*
X-4513500Y+6250000D01*
X-4405099Y+6294901D02*
X-4494901Y+6205099D01*
X-4405099Y+6205099D02*
X-4494901Y+6294901D01*
X-4958000Y+6313500D02*
X-4958000Y+6186500D01*
X-4894500Y+6250000D02*
X-5021500Y+6250000D01*
X-4913099Y+6294901D02*
X-5002901Y+6205099D01*
X-4913099Y+6205099D02*
X-5002901Y+6294901D01*
X-8442000Y+6313500D02*
X-8442000Y+6186500D01*
X-8378500Y+6250000D02*
X-8505500Y+6250000D01*
X-8397099Y+6294901D02*
X-8486901Y+6205099D01*
X-8397099Y+6205099D02*
X-8486901Y+6294901D01*
X-8950000Y+6313500D02*
X-8950000Y+6186500D01*
X-8886500Y+6250000D02*
X-9013500Y+6250000D01*
X-8905099Y+6294901D02*
X-8994901Y+6205099D01*
X-8905099Y+6205099D02*
X-8994901Y+6294901D01*
X-9458000Y+6313500D02*
X-9458000Y+6186500D01*
X-9394500Y+6250000D02*
X-9521500Y+6250000D01*
X-9413099Y+6294901D02*
X-9502901Y+6205099D01*
X-9413099Y+6205099D02*
X-9502901Y+6294901D01*
X-6192000Y+6313500D02*
X-6192000Y+6186500D01*
X-6128500Y+6250000D02*
X-6255500Y+6250000D01*
X-6147099Y+6294901D02*
X-6236901Y+6205099D01*
X-6147099Y+6205099D02*
X-6236901Y+6294901D01*
X-6700000Y+6313500D02*
X-6700000Y+6186500D01*
X-6636500Y+6250000D02*
X-6763500Y+6250000D01*
X-6655099Y+6294901D02*
X-6744901Y+6205099D01*
X-6655099Y+6205099D02*
X-6744901Y+6294901D01*
X-7208000Y+6313500D02*
X-7208000Y+6186500D01*
X-7144500Y+6250000D02*
X-7271500Y+6250000D01*
X-7163099Y+6294901D02*
X-7252901Y+6205099D01*
X-7163099Y+6205099D02*
X-7252901Y+6294901D01*
X-3842000Y+3763500D02*
X-3842000Y+3636500D01*
X-3778500Y+3700000D02*
X-3905500Y+3700000D01*
X-3797099Y+3744901D02*
X-3886901Y+3655099D01*
X-3797099Y+3655099D02*
X-3886901Y+3744901D01*
X-5042000Y+3763500D02*
X-5042000Y+3636500D01*
X-4978500Y+3700000D02*
X-5105500Y+3700000D01*
X-4997099Y+3744901D02*
X-5086901Y+3655099D01*
X-4997099Y+3655099D02*
X-5086901Y+3744901D01*
X-4442000Y+3563500D02*
X-4442000Y+3436500D01*
X-4378500Y+3500000D02*
X-4505500Y+3500000D01*
X-4397099Y+3544901D02*
X-4486901Y+3455099D01*
X-4397099Y+3455099D02*
X-4486901Y+3544901D01*
X-5042000Y+5013500D02*
X-5042000Y+4886500D01*
X-4978500Y+4950000D02*
X-5105500Y+4950000D01*
X-4997099Y+4994901D02*
X-5086901Y+4905099D01*
X-4997099Y+4905099D02*
X-5086901Y+4994901D01*
X-3842000Y+5013500D02*
X-3842000Y+4886500D01*
X-3778500Y+4950000D02*
X-3905500Y+4950000D01*
X-3797099Y+4994901D02*
X-3886901Y+4905099D01*
X-3797099Y+4905099D02*
X-3886901Y+4994901D01*
X-6092000Y+3763500D02*
X-6092000Y+3636500D01*
X-6028500Y+3700000D02*
X-6155500Y+3700000D01*
X-6047099Y+3744901D02*
X-6136901Y+3655099D01*
X-6047099Y+3655099D02*
X-6136901Y+3744901D01*
X-7292000Y+3763500D02*
X-7292000Y+3636500D01*
X-7228500Y+3700000D02*
X-7355500Y+3700000D01*
X-7247099Y+3744901D02*
X-7336901Y+3655099D01*
X-7247099Y+3655099D02*
X-7336901Y+3744901D01*
X-6692000Y+3563500D02*
X-6692000Y+3436500D01*
X-6628500Y+3500000D02*
X-6755500Y+3500000D01*
X-6647099Y+3544901D02*
X-6736901Y+3455099D01*
X-6647099Y+3455099D02*
X-6736901Y+3544901D01*
X-7292000Y+5013500D02*
X-7292000Y+4886500D01*
X-7228500Y+4950000D02*
X-7355500Y+4950000D01*
X-7247099Y+4994901D02*
X-7336901Y+4905099D01*
X-7247099Y+4905099D02*
X-7336901Y+4994901D01*
X-6092000Y+5013500D02*
X-6092000Y+4886500D01*
X-6028500Y+4950000D02*
X-6155500Y+4950000D01*
X-6047099Y+4994901D02*
X-6136901Y+4905099D01*
X-6047099Y+4905099D02*
X-6136901Y+4994901D01*
X-8342000Y+3763500D02*
X-8342000Y+3636500D01*
X-8278500Y+3700000D02*
X-8405500Y+3700000D01*
X-8297099Y+3744901D02*
X-8386901Y+3655099D01*
X-8297099Y+3655099D02*
X-8386901Y+3744901D01*
X-9542000Y+3763500D02*
X-9542000Y+3636500D01*
X-9478500Y+3700000D02*
X-9605500Y+3700000D01*
X-9497099Y+3744901D02*
X-9586901Y+3655099D01*
X-9497099Y+3655099D02*
X-9586901Y+3744901D01*
X-8942000Y+3563500D02*
X-8942000Y+3436500D01*
X-8878500Y+3500000D02*
X-9005500Y+3500000D01*
X-8897099Y+3544901D02*
X-8986901Y+3455099D01*
X-8897099Y+3455099D02*
X-8986901Y+3544901D01*
X-9542000Y+5013500D02*
X-9542000Y+4886500D01*
X-9478500Y+4950000D02*
X-9605500Y+4950000D01*
X-9497099Y+4994901D02*
X-9586901Y+4905099D01*
X-9497099Y+4905099D02*
X-9586901Y+4994901D01*
X-8342000Y+5013500D02*
X-8342000Y+4886500D01*
X-8278500Y+4950000D02*
X-8405500Y+4950000D01*
X-8297099Y+4994901D02*
X-8386901Y+4905099D01*
X-8297099Y+4905099D02*
X-8386901Y+4994901D01*
X-5942000Y+813500D02*
X-5942000Y+686500D01*
X-5878500Y+750000D02*
X-6005500Y+750000D01*
X-5897099Y+794901D02*
X-5986901Y+705099D01*
X-5897099Y+705099D02*
X-5986901Y+794901D01*
X-6450000Y+813500D02*
X-6450000Y+686500D01*
X-6386500Y+750000D02*
X-6513500Y+750000D01*
X-6405099Y+794901D02*
X-6494901Y+705099D01*
X-6405099Y+705099D02*
X-6494901Y+794901D01*
X-7442000Y+813500D02*
X-7442000Y+686500D01*
X-7378500Y+750000D02*
X-7505500Y+750000D01*
X-7397099Y+794901D02*
X-7486901Y+705099D01*
X-7397099Y+705099D02*
X-7486901Y+794901D01*
X-7950000Y+813500D02*
X-7950000Y+686500D01*
X-7886500Y+750000D02*
X-8013500Y+750000D01*
X-7905099Y+794901D02*
X-7994901Y+705099D01*
X-7905099Y+705099D02*
X-7994901Y+794901D01*
X-8942000Y+813500D02*
X-8942000Y+686500D01*
X-8878500Y+750000D02*
X-9005500Y+750000D01*
X-8897099Y+794901D02*
X-8986901Y+705099D01*
X-8897099Y+705099D02*
X-8986901Y+794901D01*
X-9450000Y+813500D02*
X-9450000Y+686500D01*
X-9386500Y+750000D02*
X-9513500Y+750000D01*
X-9405099Y+794901D02*
X-9494901Y+705099D01*
X-9405099Y+705099D02*
X-9494901Y+794901D01*
X-947099Y+1744901D02*
X-1036901Y+1655099D01*
X-947099Y+1655099D02*
X-1036901Y+1744901D01*
X-1447099Y+1744901D02*
X-1536901Y+1655099D01*
X-1447099Y+1655099D02*
X-1536901Y+1744901D01*
X-447099Y+4744901D02*
X-536901Y+4655099D01*
X-447099Y+4655099D02*
X-536901Y+4744901D01*
X-1947099Y+4744901D02*
X-2036901Y+4655099D01*
X-1947099Y+4655099D02*
X-2036901Y+4744901D01*
X-6942000Y+1463500D02*
X-6942000Y+1336500D01*
X-6878500Y+1400000D02*
X-7005500Y+1400000D01*
X-6942000Y+447500D02*
X-6942000Y+320500D01*
X-6878500Y+384000D02*
X-7005500Y+384000D01*
X-8442000Y+1463500D02*
X-8442000Y+1336500D01*
X-8378500Y+1400000D02*
X-8505500Y+1400000D01*
X-8442000Y+447500D02*
X-8442000Y+320500D01*
X-8378500Y+384000D02*
X-8505500Y+384000D01*
X-8692000Y+1463500D02*
X-8692000Y+1336500D01*
X-8628500Y+1400000D02*
X-8755500Y+1400000D01*
X-9708000Y+1463500D02*
X-9708000Y+1336500D01*
X-9644500Y+1400000D02*
X-9771500Y+1400000D01*
X-4442000Y+3113500D02*
X-4442000Y+2986500D01*
X-4378500Y+3050000D02*
X-4505500Y+3050000D01*
X-5077000Y+3113500D02*
X-5077000Y+2986500D01*
X-5013500Y+3050000D02*
X-5140500Y+3050000D01*
X-6642000Y+3113500D02*
X-6642000Y+2986500D01*
X-6578500Y+3050000D02*
X-6705500Y+3050000D01*
X-7277000Y+3113500D02*
X-7277000Y+2986500D01*
X-7213500Y+3050000D02*
X-7340500Y+3050000D01*
X-8892000Y+3113500D02*
X-8892000Y+2986500D01*
X-8828500Y+3050000D02*
X-8955500Y+3050000D01*
X-9527000Y+3113500D02*
X-9527000Y+2986500D01*
X-9463500Y+3050000D02*
X-9590500Y+3050000D01*
X-6195200Y+2963500D02*
X-6195200Y+2836500D01*
X-6131700Y+2900000D02*
X-6258700Y+2900000D01*
X-5992000Y+2963500D02*
X-5992000Y+2836500D01*
X-5928500Y+2900000D02*
X-6055500Y+2900000D01*
X-5788800Y+2963500D02*
X-5788800Y+2836500D01*
X-5725300Y+2900000D02*
X-5852300Y+2900000D01*
X-3945200Y+2963500D02*
X-3945200Y+2836500D01*
X-3881700Y+2900000D02*
X-4008700Y+2900000D01*
X-3742000Y+2963500D02*
X-3742000Y+2836500D01*
X-3678500Y+2900000D02*
X-3805500Y+2900000D01*
X-3538800Y+2963500D02*
X-3538800Y+2836500D01*
X-3475300Y+2900000D02*
X-3602300Y+2900000D01*
X-5542000Y+3229500D02*
X-5542000Y+3102500D01*
X-5478500Y+3166000D02*
X-5605500Y+3166000D01*
X-5542000Y+2213500D02*
X-5542000Y+2086500D01*
X-5478500Y+2150000D02*
X-5605500Y+2150000D01*
X-7842000Y+3229500D02*
X-7842000Y+3102500D01*
X-7778500Y+3166000D02*
X-7905500Y+3166000D01*
X-7842000Y+2213500D02*
X-7842000Y+2086500D01*
X-7778500Y+2150000D02*
X-7905500Y+2150000D01*
X-5692000Y+1463500D02*
X-5692000Y+1336500D01*
X-5628500Y+1400000D02*
X-5755500Y+1400000D01*
X-6708000Y+1463500D02*
X-6708000Y+1336500D01*
X-6644500Y+1400000D02*
X-6771500Y+1400000D01*
X-7192000Y+1463500D02*
X-7192000Y+1336500D01*
X-7128500Y+1400000D02*
X-7255500Y+1400000D01*
X-8208000Y+1463500D02*
X-8208000Y+1336500D01*
X-8144500Y+1400000D02*
X-8271500Y+1400000D01*
X-6842000Y+2163500D02*
X-6842000Y+2036500D01*
X-6778500Y+2100000D02*
X-6905500Y+2100000D01*
X-6842000Y+1782500D02*
X-6842000Y+1655500D01*
X-6778500Y+1719000D02*
X-6905500Y+1719000D01*
X-8342000Y+2163500D02*
X-8342000Y+2036500D01*
X-8278500Y+2100000D02*
X-8405500Y+2100000D01*
X-8342000Y+1782500D02*
X-8342000Y+1655500D01*
X-8278500Y+1719000D02*
X-8405500Y+1719000D01*
X-2846000Y+813500D02*
X-2846000Y+686500D01*
X-2782500Y+750000D02*
X-2909500Y+750000D01*
X-2801099Y+794901D02*
X-2890901Y+705099D01*
X-2801099Y+705099D02*
X-2890901Y+794901D01*
X-2338000Y+813500D02*
X-2338000Y+686500D01*
X-2274500Y+750000D02*
X-2401500Y+750000D01*
X-2293099Y+794901D02*
X-2382901Y+705099D01*
X-2293099Y+705099D02*
X-2382901Y+794901D01*
X-2592000Y+559500D02*
X-2592000Y+432500D01*
X-2528500Y+496000D02*
X-2655500Y+496000D01*
X-2547099Y+540901D02*
X-2636901Y+451099D01*
X-2547099Y+451099D02*
X-2636901Y+540901D01*
X-3996000Y+813500D02*
X-3996000Y+686500D01*
X-3932500Y+750000D02*
X-4059500Y+750000D01*
X-3951099Y+794901D02*
X-4040901Y+705099D01*
X-3951099Y+705099D02*
X-4040901Y+794901D01*
X-3488000Y+813500D02*
X-3488000Y+686500D01*
X-3424500Y+750000D02*
X-3551500Y+750000D01*
X-3443099Y+794901D02*
X-3532901Y+705099D01*
X-3443099Y+705099D02*
X-3532901Y+794901D01*
X-3742000Y+559500D02*
X-3742000Y+432500D01*
X-3678500Y+496000D02*
X-3805500Y+496000D01*
X-3697099Y+540901D02*
X-3786901Y+451099D01*
X-3697099Y+451099D02*
X-3786901Y+540901D01*
X-5292000Y+813500D02*
X-5292000Y+686500D01*
X-5228500Y+750000D02*
X-5355500Y+750000D01*
X-5292000Y+1067500D02*
X-5292000Y+940500D01*
X-5228500Y+1004000D02*
X-5355500Y+1004000D01*
X-5292000Y+1321500D02*
X-5292000Y+1194500D01*
X-5228500Y+1258000D02*
X-5355500Y+1258000D01*
X-5292000Y+1575500D02*
X-5292000Y+1448500D01*
X-5228500Y+1512000D02*
X-5355500Y+1512000D01*
X-4530000Y+1575500D02*
X-4530000Y+1448500D01*
X-4466500Y+1512000D02*
X-4593500Y+1512000D01*
X-4530000Y+1321500D02*
X-4530000Y+1194500D01*
X-4466500Y+1258000D02*
X-4593500Y+1258000D01*
X-4530000Y+1067500D02*
X-4530000Y+940500D01*
X-4466500Y+1004000D02*
X-4593500Y+1004000D01*
X-4530000Y+813500D02*
X-4530000Y+686500D01*
X-4466500Y+750000D02*
X-4593500Y+750000D01*
X-3692000Y+1363500D02*
X-3692000Y+1236500D01*
X-3628500Y+1300000D02*
X-3755500Y+1300000D01*
X-3692000Y+1617500D02*
X-3692000Y+1490500D01*
X-3628500Y+1554000D02*
X-3755500Y+1554000D01*
X-3692000Y+1871500D02*
X-3692000Y+1744500D01*
X-3628500Y+1808000D02*
X-3755500Y+1808000D01*
X-3692000Y+2125500D02*
X-3692000Y+1998500D01*
X-3628500Y+2062000D02*
X-3755500Y+2062000D01*
X-2930000Y+2125500D02*
X-2930000Y+1998500D01*
X-2866500Y+2062000D02*
X-2993500Y+2062000D01*
X-2930000Y+1871500D02*
X-2930000Y+1744500D01*
X-2866500Y+1808000D02*
X-2993500Y+1808000D01*
X-2930000Y+1617500D02*
X-2930000Y+1490500D01*
X-2866500Y+1554000D02*
X-2993500Y+1554000D01*
X-2930000Y+1363500D02*
X-2930000Y+1236500D01*
X-2866500Y+1300000D02*
X-2993500Y+1300000D01*
X-2442000Y+1863500D02*
X-2442000Y+1736500D01*
X-2378500Y+1800000D02*
X-2505500Y+1800000D01*
X-2442000Y+2498500D02*
X-2442000Y+2371500D01*
X-2378500Y+2435000D02*
X-2505500Y+2435000D01*
X-4242000Y+1418500D02*
X-4242000Y+1291500D01*
X-4178500Y+1355000D02*
X-4305500Y+1355000D01*
X-4242000Y+2053500D02*
X-4242000Y+1926500D01*
X-4178500Y+1990000D02*
X-4305500Y+1990000D01*
X-4092000Y+2263500D02*
X-4092000Y+2136500D01*
X-4028500Y+2200000D02*
X-4155500Y+2200000D01*
X-5108000Y+2263500D02*
X-5108000Y+2136500D01*
X-5044500Y+2200000D02*
X-5171500Y+2200000D01*
X-2692000Y+3163500D02*
X-2692000Y+3036500D01*
X-2628500Y+3100000D02*
X-2755500Y+3100000D01*
X-2692000Y+2147500D02*
X-2692000Y+2020500D01*
X-2628500Y+2084000D02*
X-2755500Y+2084000D01*
X-5442000Y+4463500D02*
X-5442000Y+4336500D01*
X-5378500Y+4400000D02*
X-5505500Y+4400000D01*
X-5442000Y+3447500D02*
X-5442000Y+3320500D01*
X-5378500Y+3384000D02*
X-5505500Y+3384000D01*
X-5692000Y+4463500D02*
X-5692000Y+4336500D01*
X-5628500Y+4400000D02*
X-5755500Y+4400000D01*
X-5692000Y+3447500D02*
X-5692000Y+3320500D01*
X-5628500Y+3384000D02*
X-5755500Y+3384000D01*
X-7692000Y+4463500D02*
X-7692000Y+4336500D01*
X-7628500Y+4400000D02*
X-7755500Y+4400000D01*
X-7692000Y+3447500D02*
X-7692000Y+3320500D01*
X-7628500Y+3384000D02*
X-7755500Y+3384000D01*
X-3442000Y+4463500D02*
X-3442000Y+4336500D01*
X-3378500Y+4400000D02*
X-3505500Y+4400000D01*
X-3442000Y+3447500D02*
X-3442000Y+3320500D01*
X-3378500Y+3384000D02*
X-3505500Y+3384000D01*
X-5547099Y+5844901D02*
X-5636901Y+5755099D01*
X-5547099Y+5755099D02*
X-5636901Y+5844901D01*
X-5547099Y+5590901D02*
X-5636901Y+5501099D01*
X-5547099Y+5501099D02*
X-5636901Y+5590901D01*
X-3297099Y+5844901D02*
X-3386901Y+5755099D01*
X-3297099Y+5755099D02*
X-3386901Y+5844901D01*
X-3297099Y+5590901D02*
X-3386901Y+5501099D01*
X-3297099Y+5501099D02*
X-3386901Y+5590901D01*
X-5942000Y+1705500D02*
X-5942000Y+1578500D01*
X-5878500Y+1642000D02*
X-6005500Y+1642000D01*
X-5942000Y+2213500D02*
X-5942000Y+2086500D01*
X-5878500Y+2150000D02*
X-6005500Y+2150000D01*
X-1242000Y+5313500D02*
X-1242000Y+5186500D01*
X-1178500Y+5250000D02*
X-1305500Y+5250000D01*
X-1242000Y+5567500D02*
X-1242000Y+5440500D01*
X-1178500Y+5504000D02*
X-1305500Y+5504000D01*
X-1242000Y+5821500D02*
X-1242000Y+5694500D01*
X-1178500Y+5758000D02*
X-1305500Y+5758000D01*
X-1242000Y+6075500D02*
X-1242000Y+5948500D01*
X-1178500Y+6012000D02*
X-1305500Y+6012000D01*
X-1242000Y+6329500D02*
X-1242000Y+6202500D01*
X-1178500Y+6266000D02*
X-1305500Y+6266000D01*
X-1242000Y+6583500D02*
X-1242000Y+6456500D01*
X-1178500Y+6520000D02*
X-1305500Y+6520000D01*
X-1242000Y+6837500D02*
X-1242000Y+6710500D01*
X-1178500Y+6774000D02*
X-1305500Y+6774000D01*
X-480000Y+6837500D02*
X-480000Y+6710500D01*
X-416500Y+6774000D02*
X-543500Y+6774000D01*
X-480000Y+6583500D02*
X-480000Y+6456500D01*
X-416500Y+6520000D02*
X-543500Y+6520000D01*
X-480000Y+6329500D02*
X-480000Y+6202500D01*
X-416500Y+6266000D02*
X-543500Y+6266000D01*
X-480000Y+6075500D02*
X-480000Y+5948500D01*
X-416500Y+6012000D02*
X-543500Y+6012000D01*
X-480000Y+5821500D02*
X-480000Y+5694500D01*
X-416500Y+5758000D02*
X-543500Y+5758000D01*
X-480000Y+5567500D02*
X-480000Y+5440500D01*
X-416500Y+5504000D02*
X-543500Y+5504000D01*
X-480000Y+5313500D02*
X-480000Y+5186500D01*
X-416500Y+5250000D02*
X-543500Y+5250000D01*
X-2392000Y+5013500D02*
X-2392000Y+4886500D01*
X-2328500Y+4950000D02*
X-2455500Y+4950000D01*
X-2392000Y+4759500D02*
X-2392000Y+4632500D01*
X-2328500Y+4696000D02*
X-2455500Y+4696000D01*
X-2392000Y+4505500D02*
X-2392000Y+4378500D01*
X-2328500Y+4442000D02*
X-2455500Y+4442000D01*
X-2392000Y+4251500D02*
X-2392000Y+4124500D01*
X-2328500Y+4188000D02*
X-2455500Y+4188000D01*
X-2392000Y+3997500D02*
X-2392000Y+3870500D01*
X-2328500Y+3934000D02*
X-2455500Y+3934000D01*
X-2392000Y+3743500D02*
X-2392000Y+3616500D01*
X-2328500Y+3680000D02*
X-2455500Y+3680000D01*
X-2392000Y+3489500D02*
X-2392000Y+3362500D01*
X-2328500Y+3426000D02*
X-2455500Y+3426000D01*
X-3154000Y+3489500D02*
X-3154000Y+3362500D01*
X-3090500Y+3426000D02*
X-3217500Y+3426000D01*
X-3154000Y+3743500D02*
X-3154000Y+3616500D01*
X-3090500Y+3680000D02*
X-3217500Y+3680000D01*
X-3154000Y+3997500D02*
X-3154000Y+3870500D01*
X-3090500Y+3934000D02*
X-3217500Y+3934000D01*
X-3154000Y+4251500D02*
X-3154000Y+4124500D01*
X-3090500Y+4188000D02*
X-3217500Y+4188000D01*
X-3154000Y+4505500D02*
X-3154000Y+4378500D01*
X-3090500Y+4442000D02*
X-3217500Y+4442000D01*
X-3154000Y+4759500D02*
X-3154000Y+4632500D01*
X-3090500Y+4696000D02*
X-3217500Y+4696000D01*
X-3154000Y+5013500D02*
X-3154000Y+4886500D01*
X-3090500Y+4950000D02*
X-3217500Y+4950000D01*
X-1692000Y+5101500D02*
X-1692000Y+4974500D01*
X-1628500Y+5038000D02*
X-1755500Y+5038000D01*
X-1692000Y+5863500D02*
X-1692000Y+5736500D01*
X-1628500Y+5800000D02*
X-1755500Y+5800000D01*
X-480000Y+5113500D02*
X-480000Y+4986500D01*
X-416500Y+5050000D02*
X-543500Y+5050000D01*
X-1242000Y+5113500D02*
X-1242000Y+4986500D01*
X-1178500Y+5050000D02*
X-1305500Y+5050000D01*
X-1697099Y+6244901D02*
X-1786901Y+6155099D01*
X-1697099Y+6155099D02*
X-1786901Y+6244901D01*
X-1951099Y+6244901D02*
X-2040901Y+6155099D01*
X-1951099Y+6155099D02*
X-2040901Y+6244901D01*
X-2342000Y+6263500D02*
X-2342000Y+6136500D01*
X-2278500Y+6200000D02*
X-2405500Y+6200000D01*
X-3358000Y+6263500D02*
X-3358000Y+6136500D01*
X-3294500Y+6200000D02*
X-3421500Y+6200000D01*
X-3900000Y+2443500D02*
X-3900000Y+2316500D01*
X-3836500Y+2380000D02*
X-3963500Y+2380000D01*
X-3392000Y+2443500D02*
X-3392000Y+2316500D01*
X-3328500Y+2380000D02*
X-3455500Y+2380000D01*
X-2850000Y+1113500D02*
X-2850000Y+986500D01*
X-2786500Y+1050000D02*
X-2913500Y+1050000D01*
X-2342000Y+1113500D02*
X-2342000Y+986500D01*
X-2278500Y+1050000D02*
X-2405500Y+1050000D01*
X-4742000Y+513500D02*
X-4742000Y+386500D01*
X-4678500Y+450000D02*
X-4805500Y+450000D01*
X-5123000Y+513500D02*
X-5123000Y+386500D01*
X-5059500Y+450000D02*
X-5186500Y+450000D01*
X-1992000Y+1413500D02*
X-1992000Y+1286500D01*
X-1928500Y+1350000D02*
X-2055500Y+1350000D01*
X-1992000Y+397500D02*
X-1992000Y+270500D01*
X-1928500Y+334000D02*
X-2055500Y+334000D01*
X-4108000Y+1113500D02*
X-4108000Y+986500D01*
X-4044500Y+1050000D02*
X-4171500Y+1050000D01*
X-3092000Y+1113500D02*
X-3092000Y+986500D01*
X-3028500Y+1050000D02*
X-3155500Y+1050000D01*
X-1822000Y+5503500D02*
X-1822000Y+5376500D01*
X-1758500Y+5440000D02*
X-1885500Y+5440000D01*
X-2457000Y+5503500D02*
X-2457000Y+5376500D01*
X-2393500Y+5440000D02*
X-2520500Y+5440000D01*
X-1942000Y+5693500D02*
X-1942000Y+5566500D01*
X-1878500Y+5630000D02*
X-2005500Y+5630000D01*
X-2577000Y+5693500D02*
X-2577000Y+5566500D01*
X-2513500Y+5630000D02*
X-2640500Y+5630000D01*
X-2804000Y+5253500D02*
X-2804000Y+5126500D01*
X-2740500Y+5190000D02*
X-2867500Y+5190000D01*
X-2042000Y+5253500D02*
X-2042000Y+5126500D01*
X-1978500Y+5190000D02*
X-2105500Y+5190000D01*
X-8650000Y+2713500D02*
X-8650000Y+2586500D01*
X-8586500Y+2650000D02*
X-8713500Y+2650000D01*
X-9285000Y+2713500D02*
X-9285000Y+2586500D01*
X-9221500Y+2650000D02*
X-9348500Y+2650000D01*
X-9285000Y+2269000D02*
X-9285000Y+2142000D01*
X-9221500Y+2205500D02*
X-9348500Y+2205500D01*
X-8650000Y+2269000D02*
X-8650000Y+2142000D01*
X-8586500Y+2205500D02*
X-8713500Y+2205500D01*
D21*
X-2625980Y-1267460D02*
X+18160Y-1267460D01*
X+18160Y-264160D01*
X-2625980Y-264160D01*
X-2625980Y-1267460D01*
D22*
X-449202Y-264160D02*
X-449202Y-1267460D01*
X-1262002Y-264160D02*
X-1262002Y-1267460D01*
X-2095122Y-264160D02*
X-2095122Y-1267460D01*
X+18160Y-537210D02*
X-2625980Y-537210D01*
X+18160Y-778510D02*
X-2625980Y-778510D01*
X+18160Y-1019810D02*
X-2625980Y-1019810D01*
D21*
X-404750Y-427990D02*
X-389510Y-443230D01*
X-328550Y-443230D01*
X-313310Y-427990D01*
X-313310Y-412750D01*
X-328550Y-397510D01*
X-389510Y-397510D01*
X-404750Y-382270D01*
X-404750Y-367030D01*
X-389510Y-351790D01*
X-328550Y-351790D01*
X-313310Y-367030D01*
X-191390Y-351790D02*
X-282830Y-443230D01*
X-282830Y-351790D02*
X-237110Y-397510D01*
X-160910Y-443230D02*
X-160910Y-351790D01*
X-115190Y-397510D01*
X-69470Y-351790D01*
X-69470Y-443230D01*
X-994030Y-427990D02*
X-978790Y-443230D01*
X-917830Y-443230D01*
X-902590Y-427990D01*
X-902590Y-412750D01*
X-917830Y-397510D01*
X-978790Y-397510D01*
X-994030Y-382270D01*
X-994030Y-367030D01*
X-978790Y-351790D01*
X-917830Y-351790D01*
X-902590Y-367030D01*
X-856870Y-351790D02*
X-795910Y-351790D01*
X-826390Y-351790D02*
X-826390Y-443230D01*
X-856870Y-443230D02*
X-795910Y-443230D01*
X-750190Y-351790D02*
X-658750Y-351790D01*
X-750190Y-443230D01*
X-658750Y-443230D01*
X-536830Y-443230D02*
X-628270Y-443230D01*
X-628270Y-351790D01*
X-536830Y-351790D01*
X-628270Y-397510D02*
X-567310Y-397510D01*
X-2050670Y-443230D02*
X-2050670Y-351790D01*
X-1974470Y-351790D01*
X-1959230Y-367030D01*
X-1959230Y-382270D01*
X-1974470Y-397510D01*
X-2050670Y-397510D01*
X-1928750Y-351790D02*
X-1928750Y-443230D01*
X-1837310Y-443230D01*
X-1806830Y-443230D02*
X-1806830Y-382270D01*
X-1776350Y-351790D01*
X-1745870Y-351790D01*
X-1715390Y-382270D01*
X-1715390Y-443230D01*
X-1806830Y-412750D02*
X-1715390Y-412750D01*
X-1684910Y-351790D02*
X-1593470Y-351790D01*
X-1639190Y-351790D02*
X-1639190Y-443230D01*
X-1471550Y-443230D02*
X-1562990Y-443230D01*
X-1562990Y-351790D01*
X-1471550Y-351790D01*
X-1562990Y-397510D02*
X-1502030Y-397510D01*
X-1441070Y-443230D02*
X-1441070Y-351790D01*
X-1380110Y-351790D01*
X-1349630Y-382270D01*
X-1349630Y-412750D01*
X-1380110Y-443230D01*
X-1441070Y-443230D01*
X-2518030Y-382270D02*
X-2487550Y-351790D01*
X-2457070Y-351790D01*
X-2426590Y-382270D01*
X-2426590Y-412750D01*
X-2457070Y-443230D01*
X-2487550Y-443230D01*
X-2518030Y-412750D01*
X-2518030Y-382270D01*
X-2457070Y-412750D02*
X-2426590Y-443230D01*
X-2396110Y-351790D02*
X-2304670Y-351790D01*
X-2350390Y-351790D02*
X-2350390Y-443230D01*
X-2182750Y-351790D02*
X-2274190Y-443230D01*
X-2274190Y-351790D02*
X-2228470Y-397510D01*
D20*
X-228220Y-588010D02*
X-228220Y-715010D01*
X-164720Y-651510D02*
X-291720Y-651510D01*
D21*
X-1236600Y-676910D02*
X-1236600Y-626110D01*
X-1223900Y-613410D01*
X-1173100Y-613410D01*
X-1160400Y-626110D01*
X-1160400Y-676910D01*
X-1173100Y-689610D01*
X-1223900Y-689610D01*
X-1236600Y-676910D01*
X-1236600Y-689610D02*
X-1160400Y-613410D01*
X-1096900Y-676910D02*
X-1084200Y-676910D01*
X-1084200Y-689610D01*
X-1096900Y-689610D01*
X-1096900Y-676910D01*
X-1020700Y-613410D02*
X-957200Y-613410D01*
X-957200Y-626110D01*
X-1020700Y-689610D01*
X-855600Y-626110D02*
X-868300Y-613410D01*
X-906400Y-613410D01*
X-919100Y-626110D01*
X-919100Y-676910D01*
X-906400Y-689610D01*
X-868300Y-689610D01*
X-855600Y-676910D01*
X-855600Y-664210D01*
X-868300Y-651510D01*
X-919100Y-651510D01*
X-817500Y-626110D02*
X-804800Y-613410D01*
X-766700Y-613410D01*
X-754000Y-626110D01*
X-754000Y-638810D01*
X-766700Y-651510D01*
X-804800Y-651510D01*
X-817500Y-664210D01*
X-817500Y-689610D01*
X-754000Y-689610D01*
X-728600Y-689610D02*
X-728600Y-638810D01*
X-728600Y-651510D02*
X-715900Y-638810D01*
X-690500Y-664210D01*
X-665100Y-638810D01*
X-652400Y-651510D01*
X-652400Y-689610D01*
X-627000Y-689610D02*
X-627000Y-638810D01*
X-627000Y-651510D02*
X-614300Y-638810D01*
X-588900Y-664210D01*
X-563500Y-638810D01*
X-550800Y-651510D01*
X-550800Y-689610D01*
X-1579500Y-613410D02*
X-1655700Y-689610D01*
X-1655700Y-613410D02*
X-1617600Y-651510D01*
X-1477900Y-689610D02*
X-1554100Y-689610D01*
X-1554100Y-613410D01*
X-1477900Y-613410D01*
X-1554100Y-651510D02*
X-1503300Y-651510D01*
X-1452500Y-676910D02*
X-1439800Y-689610D01*
X-1389000Y-689610D01*
X-1376300Y-676910D01*
X-1376300Y-664210D01*
X-1389000Y-651510D01*
X-1439800Y-651510D01*
X-1452500Y-638810D01*
X-1452500Y-626110D01*
X-1439800Y-613410D01*
X-1389000Y-613410D01*
X-1376300Y-626110D01*
X-2476120Y-638810D02*
X-2450720Y-613410D01*
X-2450720Y-689610D01*
X-2374520Y-638810D02*
X-2349120Y-613410D01*
X-2349120Y-689610D01*
X-2272920Y-651510D02*
X-2285620Y-638810D01*
X-2285620Y-626110D01*
X-2272920Y-613410D01*
X-2234820Y-613410D01*
X-2222120Y-626110D01*
X-2222120Y-638810D01*
X-2234820Y-651510D01*
X-2272920Y-651510D01*
X-2285620Y-664210D01*
X-2285620Y-676910D01*
X-2272920Y-689610D01*
X-2234820Y-689610D01*
X-2222120Y-676910D01*
X-2222120Y-664210D01*
X-2234820Y-651510D01*
D20*
X-183319Y-847909D02*
X-273121Y-937711D01*
X-183319Y-937711D02*
X-273121Y-847909D01*
D21*
X-1211200Y-880110D02*
X-1185800Y-854710D01*
X-1185800Y-930910D01*
X-1096900Y-918210D02*
X-1084200Y-918210D01*
X-1084200Y-930910D01*
X-1096900Y-930910D01*
X-1096900Y-918210D01*
X-1033400Y-918210D02*
X-1033400Y-867410D01*
X-1020700Y-854710D01*
X-969900Y-854710D01*
X-957200Y-867410D01*
X-957200Y-918210D01*
X-969900Y-930910D01*
X-1020700Y-930910D01*
X-1033400Y-918210D01*
X-1033400Y-930910D02*
X-957200Y-854710D01*
X-906400Y-880110D02*
X-881000Y-854710D01*
X-881000Y-930910D01*
X-754000Y-867410D02*
X-766700Y-854710D01*
X-804800Y-854710D01*
X-817500Y-867410D01*
X-817500Y-918210D01*
X-804800Y-930910D01*
X-766700Y-930910D01*
X-754000Y-918210D01*
X-754000Y-905510D01*
X-766700Y-892810D01*
X-817500Y-892810D01*
X-728600Y-930910D02*
X-728600Y-880110D01*
X-728600Y-892810D02*
X-715900Y-880110D01*
X-690500Y-905510D01*
X-665100Y-880110D01*
X-652400Y-892810D01*
X-652400Y-930910D01*
X-627000Y-930910D02*
X-627000Y-880110D01*
X-627000Y-892810D02*
X-614300Y-880110D01*
X-588900Y-905510D01*
X-563500Y-880110D01*
X-550800Y-892810D01*
X-550800Y-930910D01*
X-1579500Y-854710D02*
X-1655700Y-930910D01*
X-1655700Y-854710D02*
X-1617600Y-892810D01*
X-1477900Y-930910D02*
X-1554100Y-930910D01*
X-1554100Y-854710D01*
X-1477900Y-854710D01*
X-1554100Y-892810D02*
X-1503300Y-892810D01*
X-1452500Y-918210D02*
X-1439800Y-930910D01*
X-1389000Y-930910D01*
X-1376300Y-918210D01*
X-1376300Y-905510D01*
X-1389000Y-892810D01*
X-1439800Y-892810D01*
X-1452500Y-880110D01*
X-1452500Y-867410D01*
X-1439800Y-854710D01*
X-1389000Y-854710D01*
X-1376300Y-867410D01*
X-2374520Y-880110D02*
X-2349120Y-854710D01*
X-2349120Y-930910D01*
X-2298320Y-918210D02*
X-2298320Y-867410D01*
X-2285620Y-854710D01*
X-2234820Y-854710D01*
X-2222120Y-867410D01*
X-2222120Y-918210D01*
X-2234820Y-930910D01*
X-2285620Y-930910D01*
X-2298320Y-918210D01*
X-2298320Y-930910D02*
X-2222120Y-854710D01*
D20*
X-228220Y-1070610D02*
X-228220Y-1197610D01*
X-164720Y-1134110D02*
X-291720Y-1134110D01*
X-183319Y-1089209D02*
X-273121Y-1179011D01*
X-183319Y-1179011D02*
X-273121Y-1089209D01*
D21*
X-1211200Y-1121410D02*
X-1185800Y-1096010D01*
X-1185800Y-1172210D01*
X-1096900Y-1159510D02*
X-1084200Y-1159510D01*
X-1084200Y-1172210D01*
X-1096900Y-1172210D01*
X-1096900Y-1159510D01*
X-957200Y-1096010D02*
X-1020700Y-1096010D01*
X-1020700Y-1121410D01*
X-969900Y-1121410D01*
X-957200Y-1134110D01*
X-957200Y-1159510D01*
X-969900Y-1172210D01*
X-1008000Y-1172210D01*
X-1020700Y-1159510D01*
X-919100Y-1108710D02*
X-906400Y-1096010D01*
X-868300Y-1096010D01*
X-855600Y-1108710D01*
X-855600Y-1121410D01*
X-868300Y-1134110D01*
X-906400Y-1134110D01*
X-919100Y-1146810D01*
X-919100Y-1172210D01*
X-855600Y-1172210D01*
X-754000Y-1146810D02*
X-830200Y-1146810D01*
X-779400Y-1096010D01*
X-779400Y-1172210D01*
X-728600Y-1172210D02*
X-728600Y-1121410D01*
X-728600Y-1134110D02*
X-715900Y-1121410D01*
X-690500Y-1146810D01*
X-665100Y-1121410D01*
X-652400Y-1134110D01*
X-652400Y-1172210D01*
X-627000Y-1172210D02*
X-627000Y-1121410D01*
X-627000Y-1134110D02*
X-614300Y-1121410D01*
X-588900Y-1146810D01*
X-563500Y-1121410D01*
X-550800Y-1134110D01*
X-550800Y-1172210D01*
X-1579500Y-1096010D02*
X-1655700Y-1172210D01*
X-1655700Y-1096010D02*
X-1617600Y-1134110D01*
X-1477900Y-1172210D02*
X-1554100Y-1172210D01*
X-1554100Y-1096010D01*
X-1477900Y-1096010D01*
X-1554100Y-1134110D02*
X-1503300Y-1134110D01*
X-1452500Y-1159510D02*
X-1439800Y-1172210D01*
X-1389000Y-1172210D01*
X-1376300Y-1159510D01*
X-1376300Y-1146810D01*
X-1389000Y-1134110D01*
X-1439800Y-1134110D01*
X-1452500Y-1121410D01*
X-1452500Y-1108710D01*
X-1439800Y-1096010D01*
X-1389000Y-1096010D01*
X-1376300Y-1108710D01*
X-2387220Y-1108710D02*
X-2374520Y-1096010D01*
X-2336420Y-1096010D01*
X-2323720Y-1108710D01*
X-2323720Y-1121410D01*
X-2336420Y-1134110D01*
X-2323720Y-1146810D01*
X-2323720Y-1159510D01*
X-2336420Y-1172210D01*
X-2374520Y-1172210D01*
X-2387220Y-1159510D01*
X-2361820Y-1134110D02*
X-2336420Y-1134110D01*
X-2272920Y-1134110D02*
X-2285620Y-1121410D01*
X-2285620Y-1108710D01*
X-2272920Y-1096010D01*
X-2234820Y-1096010D01*
X-2222120Y-1108710D01*
X-2222120Y-1121410D01*
X-2234820Y-1134110D01*
X-2272920Y-1134110D01*
X-2285620Y-1146810D01*
X-2285620Y-1159510D01*
X-2272920Y-1172210D01*
X-2234820Y-1172210D01*
X-2222120Y-1159510D01*
X-2222120Y-1146810D01*
X-2234820Y-1134110D01*
M02*
