M48
METRIC,TZ
T01C1.0160
T02C1.1430
T03C0.7620
%
T01
X-12700Y-1270
X-12700Y-3810
X-12700Y-8890
X-12700Y-11430
X-12700Y-16510
X-12700Y-19050
X-12700Y-24130
X-12700Y-26670
X-12700Y-31750
X-12700Y-34290
X-12700Y-39370
X-12700Y-41910
X-12700Y-46990
X-12700Y-49530
X-12700Y-54610
X-12700Y-57150
X-12700Y-62230
X-12700Y-64770
X-12700Y+6350
X-12700Y+3810
X-12700Y+13970
X-12700Y+11430
X+43180Y-1270
X+43180Y-3810
X+43180Y-8890
X+43180Y-11430
X+43180Y-16510
X+43180Y-19050
X+43180Y-24130
X+43180Y-26670
X+43180Y-31750
X+43180Y-34290
X+43180Y-39370
X+43180Y-41910
X+43180Y-46990
X+43180Y-49530
X+43180Y-54610
X+43180Y-57150
X+43180Y-62230
X+43180Y-64770
X+43180Y+6350
X+43180Y+3810
X+43180Y+13970
X+43180Y+11430
X-5080Y+13970
X-5080Y+11430
X+2540Y+13970
X+2540Y+11430
X+20320Y+13970
X+20320Y+11430
X+27940Y+13970
X+27940Y+11430
X+35560Y+13970
X+35560Y+11430
X+10160Y+13970
X+10160Y+11430
X-1270Y+6350
X-1270Y+3810
X+6350Y+6350
X+6350Y+3810
X+15240Y+6350
X+15240Y+3810
X+24130Y+6350
X+24130Y+3810
X+31750Y+6350
X+31750Y+3810
X-5080Y-62230
X-5080Y-64770
X+2540Y-62230
X+2540Y-64770
X+10160Y-62230
X+10160Y-64770
X+35560Y-62230
X+35560Y-64770
X+27940Y-62230
X+27940Y-64770
X+20320Y-62230
X+20320Y-64770
X-1270Y-54610
X-1270Y-57150
X+6350Y-54610
X+6350Y-57150
X+15240Y-54610
X+15240Y-57150
X+24130Y-54610
X+24130Y-57150
X+31750Y-54610
X+31750Y-57150
X-5080Y-8890
X-5080Y-11430
X-5080Y-24130
X-5080Y-26670
X-5080Y-39370
X-5080Y-41910
X+35560Y-11430
X+35560Y-8890
X+35560Y-26670
X+35560Y-24130
X+35560Y-41910
X+35560Y-39370
X+10160Y-73660
X+16510Y-73660
T02
X-2540Y+17780
X-12700Y+17780
X+43180Y+17780
X+33020Y+17780
T03
X-6350Y+5080
X-6350Y-5080
X+38100Y+5080
X+38100Y-5080
X-7620Y-49530
X-7620Y-59690
X+4572Y-71120
X+2540Y-71120
X+508Y-71120
X+22098Y-71120
X+24130Y-71120
X+26162Y-71120
M30
