G04 PROTEUS RS274X GERBER FILE*
%FSLAX45Y45*%
%MOMM*%
G01*
%ADD14C,0.203200*%
%ADD20C,0.127000*%
%ADD21C,0.063500*%
D14*
X-1314901Y-82099D02*
X-1225099Y-171901D01*
X-1314901Y-171901D02*
X-1225099Y-82099D01*
X-1314901Y-336099D02*
X-1225099Y-425901D01*
X-1314901Y-425901D02*
X-1225099Y-336099D01*
X-1314901Y-844099D02*
X-1225099Y-933901D01*
X-1314901Y-933901D02*
X-1225099Y-844099D01*
X-1314901Y-1098099D02*
X-1225099Y-1187901D01*
X-1314901Y-1187901D02*
X-1225099Y-1098099D01*
X-1314901Y-1606099D02*
X-1225099Y-1695901D01*
X-1314901Y-1695901D02*
X-1225099Y-1606099D01*
X-1314901Y-1860099D02*
X-1225099Y-1949901D01*
X-1314901Y-1949901D02*
X-1225099Y-1860099D01*
X-1314901Y-2368099D02*
X-1225099Y-2457901D01*
X-1314901Y-2457901D02*
X-1225099Y-2368099D01*
X-1314901Y-2622099D02*
X-1225099Y-2711901D01*
X-1314901Y-2711901D02*
X-1225099Y-2622099D01*
X-1314901Y-3130099D02*
X-1225099Y-3219901D01*
X-1314901Y-3219901D02*
X-1225099Y-3130099D01*
X-1314901Y-3384099D02*
X-1225099Y-3473901D01*
X-1314901Y-3473901D02*
X-1225099Y-3384099D01*
X-1314901Y-3892099D02*
X-1225099Y-3981901D01*
X-1314901Y-3981901D02*
X-1225099Y-3892099D01*
X-1314901Y-4146099D02*
X-1225099Y-4235901D01*
X-1314901Y-4235901D02*
X-1225099Y-4146099D01*
X-1314901Y-4654099D02*
X-1225099Y-4743901D01*
X-1314901Y-4743901D02*
X-1225099Y-4654099D01*
X-1314901Y-4908099D02*
X-1225099Y-4997901D01*
X-1314901Y-4997901D02*
X-1225099Y-4908099D01*
X-1314901Y-5416099D02*
X-1225099Y-5505901D01*
X-1314901Y-5505901D02*
X-1225099Y-5416099D01*
X-1314901Y-5670099D02*
X-1225099Y-5759901D01*
X-1314901Y-5759901D02*
X-1225099Y-5670099D01*
X-1314901Y-6178099D02*
X-1225099Y-6267901D01*
X-1314901Y-6267901D02*
X-1225099Y-6178099D01*
X-1314901Y-6432099D02*
X-1225099Y-6521901D01*
X-1314901Y-6521901D02*
X-1225099Y-6432099D01*
X-1314901Y+679901D02*
X-1225099Y+590099D01*
X-1314901Y+590099D02*
X-1225099Y+679901D01*
X-1314901Y+425901D02*
X-1225099Y+336099D01*
X-1314901Y+336099D02*
X-1225099Y+425901D01*
X-1314901Y+1441901D02*
X-1225099Y+1352099D01*
X-1314901Y+1352099D02*
X-1225099Y+1441901D01*
X-1314901Y+1187901D02*
X-1225099Y+1098099D01*
X-1314901Y+1098099D02*
X-1225099Y+1187901D01*
X+4273099Y-82099D02*
X+4362901Y-171901D01*
X+4273099Y-171901D02*
X+4362901Y-82099D01*
X+4273099Y-336099D02*
X+4362901Y-425901D01*
X+4273099Y-425901D02*
X+4362901Y-336099D01*
X+4273099Y-844099D02*
X+4362901Y-933901D01*
X+4273099Y-933901D02*
X+4362901Y-844099D01*
X+4273099Y-1098099D02*
X+4362901Y-1187901D01*
X+4273099Y-1187901D02*
X+4362901Y-1098099D01*
X+4273099Y-1606099D02*
X+4362901Y-1695901D01*
X+4273099Y-1695901D02*
X+4362901Y-1606099D01*
X+4273099Y-1860099D02*
X+4362901Y-1949901D01*
X+4273099Y-1949901D02*
X+4362901Y-1860099D01*
X+4273099Y-2368099D02*
X+4362901Y-2457901D01*
X+4273099Y-2457901D02*
X+4362901Y-2368099D01*
X+4273099Y-2622099D02*
X+4362901Y-2711901D01*
X+4273099Y-2711901D02*
X+4362901Y-2622099D01*
X+4273099Y-3130099D02*
X+4362901Y-3219901D01*
X+4273099Y-3219901D02*
X+4362901Y-3130099D01*
X+4273099Y-3384099D02*
X+4362901Y-3473901D01*
X+4273099Y-3473901D02*
X+4362901Y-3384099D01*
X+4273099Y-3892099D02*
X+4362901Y-3981901D01*
X+4273099Y-3981901D02*
X+4362901Y-3892099D01*
X+4273099Y-4146099D02*
X+4362901Y-4235901D01*
X+4273099Y-4235901D02*
X+4362901Y-4146099D01*
X+4273099Y-4654099D02*
X+4362901Y-4743901D01*
X+4273099Y-4743901D02*
X+4362901Y-4654099D01*
X+4273099Y-4908099D02*
X+4362901Y-4997901D01*
X+4273099Y-4997901D02*
X+4362901Y-4908099D01*
X+4273099Y-5416099D02*
X+4362901Y-5505901D01*
X+4273099Y-5505901D02*
X+4362901Y-5416099D01*
X+4273099Y-5670099D02*
X+4362901Y-5759901D01*
X+4273099Y-5759901D02*
X+4362901Y-5670099D01*
X+4273099Y-6178099D02*
X+4362901Y-6267901D01*
X+4273099Y-6267901D02*
X+4362901Y-6178099D01*
X+4273099Y-6432099D02*
X+4362901Y-6521901D01*
X+4273099Y-6521901D02*
X+4362901Y-6432099D01*
X+4273099Y+679901D02*
X+4362901Y+590099D01*
X+4273099Y+590099D02*
X+4362901Y+679901D01*
X+4273099Y+425901D02*
X+4362901Y+336099D01*
X+4273099Y+336099D02*
X+4362901Y+425901D01*
X+4273099Y+1441901D02*
X+4362901Y+1352099D01*
X+4273099Y+1352099D02*
X+4362901Y+1441901D01*
X+4273099Y+1187901D02*
X+4362901Y+1098099D01*
X+4273099Y+1098099D02*
X+4362901Y+1187901D01*
X-552901Y+1441901D02*
X-463099Y+1352099D01*
X-552901Y+1352099D02*
X-463099Y+1441901D01*
X-552901Y+1187901D02*
X-463099Y+1098099D01*
X-552901Y+1098099D02*
X-463099Y+1187901D01*
X+209099Y+1441901D02*
X+298901Y+1352099D01*
X+209099Y+1352099D02*
X+298901Y+1441901D01*
X+209099Y+1187901D02*
X+298901Y+1098099D01*
X+209099Y+1098099D02*
X+298901Y+1187901D01*
X+1987099Y+1441901D02*
X+2076901Y+1352099D01*
X+1987099Y+1352099D02*
X+2076901Y+1441901D01*
X+1987099Y+1187901D02*
X+2076901Y+1098099D01*
X+1987099Y+1098099D02*
X+2076901Y+1187901D01*
X+2749099Y+1441901D02*
X+2838901Y+1352099D01*
X+2749099Y+1352099D02*
X+2838901Y+1441901D01*
X+2749099Y+1187901D02*
X+2838901Y+1098099D01*
X+2749099Y+1098099D02*
X+2838901Y+1187901D01*
X+3511099Y+1441901D02*
X+3600901Y+1352099D01*
X+3511099Y+1352099D02*
X+3600901Y+1441901D01*
X+3511099Y+1187901D02*
X+3600901Y+1098099D01*
X+3511099Y+1098099D02*
X+3600901Y+1187901D01*
X+971099Y+1441901D02*
X+1060901Y+1352099D01*
X+971099Y+1352099D02*
X+1060901Y+1441901D01*
X+971099Y+1187901D02*
X+1060901Y+1098099D01*
X+971099Y+1098099D02*
X+1060901Y+1187901D01*
X-171901Y+679901D02*
X-82099Y+590099D01*
X-171901Y+590099D02*
X-82099Y+679901D01*
X-171901Y+425901D02*
X-82099Y+336099D01*
X-171901Y+336099D02*
X-82099Y+425901D01*
X+590099Y+679901D02*
X+679901Y+590099D01*
X+590099Y+590099D02*
X+679901Y+679901D01*
X+590099Y+425901D02*
X+679901Y+336099D01*
X+590099Y+336099D02*
X+679901Y+425901D01*
X+1479099Y+679901D02*
X+1568901Y+590099D01*
X+1479099Y+590099D02*
X+1568901Y+679901D01*
X+1479099Y+425901D02*
X+1568901Y+336099D01*
X+1479099Y+336099D02*
X+1568901Y+425901D01*
X+2368099Y+679901D02*
X+2457901Y+590099D01*
X+2368099Y+590099D02*
X+2457901Y+679901D01*
X+2368099Y+425901D02*
X+2457901Y+336099D01*
X+2368099Y+336099D02*
X+2457901Y+425901D01*
X+3130099Y+679901D02*
X+3219901Y+590099D01*
X+3130099Y+590099D02*
X+3219901Y+679901D01*
X+3130099Y+425901D02*
X+3219901Y+336099D01*
X+3130099Y+336099D02*
X+3219901Y+425901D01*
X-552901Y-6178099D02*
X-463099Y-6267901D01*
X-552901Y-6267901D02*
X-463099Y-6178099D01*
X-552901Y-6432099D02*
X-463099Y-6521901D01*
X-552901Y-6521901D02*
X-463099Y-6432099D01*
X+209099Y-6178099D02*
X+298901Y-6267901D01*
X+209099Y-6267901D02*
X+298901Y-6178099D01*
X+209099Y-6432099D02*
X+298901Y-6521901D01*
X+209099Y-6521901D02*
X+298901Y-6432099D01*
X+971099Y-6178099D02*
X+1060901Y-6267901D01*
X+971099Y-6267901D02*
X+1060901Y-6178099D01*
X+971099Y-6432099D02*
X+1060901Y-6521901D01*
X+971099Y-6521901D02*
X+1060901Y-6432099D01*
X+3511099Y-6178099D02*
X+3600901Y-6267901D01*
X+3511099Y-6267901D02*
X+3600901Y-6178099D01*
X+3511099Y-6432099D02*
X+3600901Y-6521901D01*
X+3511099Y-6521901D02*
X+3600901Y-6432099D01*
X+2749099Y-6178099D02*
X+2838901Y-6267901D01*
X+2749099Y-6267901D02*
X+2838901Y-6178099D01*
X+2749099Y-6432099D02*
X+2838901Y-6521901D01*
X+2749099Y-6521901D02*
X+2838901Y-6432099D01*
X+1987099Y-6178099D02*
X+2076901Y-6267901D01*
X+1987099Y-6267901D02*
X+2076901Y-6178099D01*
X+1987099Y-6432099D02*
X+2076901Y-6521901D01*
X+1987099Y-6521901D02*
X+2076901Y-6432099D01*
X-171901Y-5416099D02*
X-82099Y-5505901D01*
X-171901Y-5505901D02*
X-82099Y-5416099D01*
X-171901Y-5670099D02*
X-82099Y-5759901D01*
X-171901Y-5759901D02*
X-82099Y-5670099D01*
X+590099Y-5416099D02*
X+679901Y-5505901D01*
X+590099Y-5505901D02*
X+679901Y-5416099D01*
X+590099Y-5670099D02*
X+679901Y-5759901D01*
X+590099Y-5759901D02*
X+679901Y-5670099D01*
X+1479099Y-5416099D02*
X+1568901Y-5505901D01*
X+1479099Y-5505901D02*
X+1568901Y-5416099D01*
X+1479099Y-5670099D02*
X+1568901Y-5759901D01*
X+1479099Y-5759901D02*
X+1568901Y-5670099D01*
X+2368099Y-5416099D02*
X+2457901Y-5505901D01*
X+2368099Y-5505901D02*
X+2457901Y-5416099D01*
X+2368099Y-5670099D02*
X+2457901Y-5759901D01*
X+2368099Y-5759901D02*
X+2457901Y-5670099D01*
X+3130099Y-5416099D02*
X+3219901Y-5505901D01*
X+3130099Y-5505901D02*
X+3219901Y-5416099D01*
X+3130099Y-5670099D02*
X+3219901Y-5759901D01*
X+3130099Y-5759901D02*
X+3219901Y-5670099D01*
X-552901Y-844099D02*
X-463099Y-933901D01*
X-552901Y-933901D02*
X-463099Y-844099D01*
X-552901Y-1098099D02*
X-463099Y-1187901D01*
X-552901Y-1187901D02*
X-463099Y-1098099D01*
X-552901Y-2368099D02*
X-463099Y-2457901D01*
X-552901Y-2457901D02*
X-463099Y-2368099D01*
X-552901Y-2622099D02*
X-463099Y-2711901D01*
X-552901Y-2711901D02*
X-463099Y-2622099D01*
X-552901Y-3892099D02*
X-463099Y-3981901D01*
X-552901Y-3981901D02*
X-463099Y-3892099D01*
X-552901Y-4146099D02*
X-463099Y-4235901D01*
X-552901Y-4235901D02*
X-463099Y-4146099D01*
X+3511099Y-1098099D02*
X+3600901Y-1187901D01*
X+3511099Y-1187901D02*
X+3600901Y-1098099D01*
X+3511099Y-844099D02*
X+3600901Y-933901D01*
X+3511099Y-933901D02*
X+3600901Y-844099D01*
X+3511099Y-2622099D02*
X+3600901Y-2711901D01*
X+3511099Y-2711901D02*
X+3600901Y-2622099D01*
X+3511099Y-2368099D02*
X+3600901Y-2457901D01*
X+3511099Y-2457901D02*
X+3600901Y-2368099D01*
X+3511099Y-4146099D02*
X+3600901Y-4235901D01*
X+3511099Y-4235901D02*
X+3600901Y-4146099D01*
X+3511099Y-3892099D02*
X+3600901Y-3981901D01*
X+3511099Y-3981901D02*
X+3600901Y-3892099D01*
X-254000Y+1841500D02*
X-254000Y+1714500D01*
X-317500Y+1778000D02*
X-190500Y+1778000D01*
X-298901Y+1822901D02*
X-209099Y+1733099D01*
X-298901Y+1733099D02*
X-209099Y+1822901D01*
X-1270000Y+1841500D02*
X-1270000Y+1714500D01*
X-1333500Y+1778000D02*
X-1206500Y+1778000D01*
X-1314901Y+1822901D02*
X-1225099Y+1733099D01*
X-1314901Y+1733099D02*
X-1225099Y+1822901D01*
X+4318000Y+1841500D02*
X+4318000Y+1714500D01*
X+4254500Y+1778000D02*
X+4381500Y+1778000D01*
X+4273099Y+1822901D02*
X+4362901Y+1733099D01*
X+4273099Y+1733099D02*
X+4362901Y+1822901D01*
X+3302000Y+1841500D02*
X+3302000Y+1714500D01*
X+3238500Y+1778000D02*
X+3365500Y+1778000D01*
X+3257099Y+1822901D02*
X+3346901Y+1733099D01*
X+3257099Y+1733099D02*
X+3346901Y+1822901D01*
X-635000Y+571500D02*
X-635000Y+444500D01*
X-698500Y+508000D02*
X-571500Y+508000D01*
X-635000Y-444500D02*
X-635000Y-571500D01*
X-698500Y-508000D02*
X-571500Y-508000D01*
X+3810000Y+571500D02*
X+3810000Y+444500D01*
X+3746500Y+508000D02*
X+3873500Y+508000D01*
X+3810000Y-444500D02*
X+3810000Y-571500D01*
X+3746500Y-508000D02*
X+3873500Y-508000D01*
X-762000Y-4889500D02*
X-762000Y-5016500D01*
X-825500Y-4953000D02*
X-698500Y-4953000D01*
X-762000Y-5905500D02*
X-762000Y-6032500D01*
X-825500Y-5969000D02*
X-698500Y-5969000D01*
X+457200Y-7048500D02*
X+457200Y-7175500D01*
X+393700Y-7112000D02*
X+520700Y-7112000D01*
X+254000Y-7048500D02*
X+254000Y-7175500D01*
X+190500Y-7112000D02*
X+317500Y-7112000D01*
X+50800Y-7048500D02*
X+50800Y-7175500D01*
X-12700Y-7112000D02*
X+114300Y-7112000D01*
X+2209800Y-7048500D02*
X+2209800Y-7175500D01*
X+2146300Y-7112000D02*
X+2273300Y-7112000D01*
X+2413000Y-7048500D02*
X+2413000Y-7175500D01*
X+2349500Y-7112000D02*
X+2476500Y-7112000D01*
X+2616200Y-7048500D02*
X+2616200Y-7175500D01*
X+2552700Y-7112000D02*
X+2679700Y-7112000D01*
X+971099Y-7321099D02*
X+1060901Y-7410901D01*
X+971099Y-7410901D02*
X+1060901Y-7321099D01*
X+1606099Y-7321099D02*
X+1695901Y-7410901D01*
X+1606099Y-7410901D02*
X+1695901Y-7321099D01*
X+0Y-5000000D02*
X+3000000Y-5000000D01*
X+3000000Y+0D01*
X+0Y+0D01*
X+0Y-5000000D01*
X-1778000Y+1905000D02*
X-1397000Y+2286000D01*
X+4445000Y+2286000D02*
X+4826000Y+1905000D01*
X+4826000Y-7366000D02*
X+4445000Y-7747000D01*
X-1778000Y-7366000D02*
X-1397000Y-7747000D01*
X+4445000Y-7747000D01*
X+4826000Y-7366000D02*
X+4826000Y+1905000D01*
X+4445000Y+2286000D02*
X-1397000Y+2286000D01*
X-1778000Y+1905000D02*
X-1778000Y-7366000D01*
D20*
X-1788160Y-9014460D02*
X+855980Y-9014460D01*
X+855980Y-8011160D01*
X-1788160Y-8011160D01*
X-1788160Y-9014460D01*
D21*
X-1320798Y-8011160D02*
X-1320798Y-9014460D01*
X-507998Y-8011160D02*
X-507998Y-9014460D01*
X+325122Y-8011160D02*
X+325122Y-9014460D01*
X-1788160Y-8284210D02*
X+855980Y-8284210D01*
X-1788160Y-8525510D02*
X+855980Y-8525510D01*
X-1788160Y-8766810D02*
X+855980Y-8766810D01*
D20*
X-1731010Y-8174990D02*
X-1715770Y-8190230D01*
X-1654810Y-8190230D01*
X-1639570Y-8174990D01*
X-1639570Y-8159750D01*
X-1654810Y-8144510D01*
X-1715770Y-8144510D01*
X-1731010Y-8129270D01*
X-1731010Y-8114030D01*
X-1715770Y-8098790D01*
X-1654810Y-8098790D01*
X-1639570Y-8114030D01*
X-1517650Y-8098790D02*
X-1609090Y-8190230D01*
X-1609090Y-8098790D02*
X-1563370Y-8144510D01*
X-1487170Y-8190230D02*
X-1487170Y-8098790D01*
X-1441450Y-8144510D01*
X-1395730Y-8098790D01*
X-1395730Y-8190230D01*
X-1263650Y-8174990D02*
X-1248410Y-8190230D01*
X-1187450Y-8190230D01*
X-1172210Y-8174990D01*
X-1172210Y-8159750D01*
X-1187450Y-8144510D01*
X-1248410Y-8144510D01*
X-1263650Y-8129270D01*
X-1263650Y-8114030D01*
X-1248410Y-8098790D01*
X-1187450Y-8098790D01*
X-1172210Y-8114030D01*
X-1126490Y-8098790D02*
X-1065530Y-8098790D01*
X-1096010Y-8098790D02*
X-1096010Y-8190230D01*
X-1126490Y-8190230D02*
X-1065530Y-8190230D01*
X-1019810Y-8098790D02*
X-928370Y-8098790D01*
X-1019810Y-8190230D01*
X-928370Y-8190230D01*
X-806450Y-8190230D02*
X-897890Y-8190230D01*
X-897890Y-8098790D01*
X-806450Y-8098790D01*
X-897890Y-8144510D02*
X-836930Y-8144510D01*
X-450850Y-8190230D02*
X-450850Y-8098790D01*
X-374650Y-8098790D01*
X-359410Y-8114030D01*
X-359410Y-8129270D01*
X-374650Y-8144510D01*
X-450850Y-8144510D01*
X-328930Y-8098790D02*
X-328930Y-8190230D01*
X-237490Y-8190230D01*
X-207010Y-8190230D02*
X-207010Y-8129270D01*
X-176530Y-8098790D01*
X-146050Y-8098790D01*
X-115570Y-8129270D01*
X-115570Y-8190230D01*
X-207010Y-8159750D02*
X-115570Y-8159750D01*
X-85090Y-8098790D02*
X+6350Y-8098790D01*
X-39370Y-8098790D02*
X-39370Y-8190230D01*
X+128270Y-8190230D02*
X+36830Y-8190230D01*
X+36830Y-8098790D01*
X+128270Y-8098790D01*
X+36830Y-8144510D02*
X+97790Y-8144510D01*
X+158750Y-8190230D02*
X+158750Y-8098790D01*
X+219710Y-8098790D01*
X+250190Y-8129270D01*
X+250190Y-8159750D01*
X+219710Y-8190230D01*
X+158750Y-8190230D01*
X+382270Y-8129270D02*
X+412750Y-8098790D01*
X+443230Y-8098790D01*
X+473710Y-8129270D01*
X+473710Y-8159750D01*
X+443230Y-8190230D01*
X+412750Y-8190230D01*
X+382270Y-8159750D01*
X+382270Y-8129270D01*
X+443230Y-8159750D02*
X+473710Y-8190230D01*
X+504190Y-8098790D02*
X+595630Y-8098790D01*
X+549910Y-8098790D02*
X+549910Y-8190230D01*
X+717550Y-8098790D02*
X+626110Y-8190230D01*
X+626110Y-8098790D02*
X+671830Y-8144510D01*
D14*
X-1541780Y-8335010D02*
X-1541780Y-8462010D01*
X-1605280Y-8398510D02*
X-1478280Y-8398510D01*
D20*
X-1244600Y-8423910D02*
X-1244600Y-8373110D01*
X-1231900Y-8360410D01*
X-1181100Y-8360410D01*
X-1168400Y-8373110D01*
X-1168400Y-8423910D01*
X-1181100Y-8436610D01*
X-1231900Y-8436610D01*
X-1244600Y-8423910D01*
X-1244600Y-8436610D02*
X-1168400Y-8360410D01*
X-1104900Y-8423910D02*
X-1092200Y-8423910D01*
X-1092200Y-8436610D01*
X-1104900Y-8436610D01*
X-1104900Y-8423910D01*
X-1028700Y-8360410D02*
X-965200Y-8360410D01*
X-965200Y-8373110D01*
X-1028700Y-8436610D01*
X-863600Y-8373110D02*
X-876300Y-8360410D01*
X-914400Y-8360410D01*
X-927100Y-8373110D01*
X-927100Y-8423910D01*
X-914400Y-8436610D01*
X-876300Y-8436610D01*
X-863600Y-8423910D01*
X-863600Y-8411210D01*
X-876300Y-8398510D01*
X-927100Y-8398510D01*
X-825500Y-8373110D02*
X-812800Y-8360410D01*
X-774700Y-8360410D01*
X-762000Y-8373110D01*
X-762000Y-8385810D01*
X-774700Y-8398510D01*
X-812800Y-8398510D01*
X-825500Y-8411210D01*
X-825500Y-8436610D01*
X-762000Y-8436610D01*
X-736600Y-8436610D02*
X-736600Y-8385810D01*
X-736600Y-8398510D02*
X-723900Y-8385810D01*
X-698500Y-8411210D01*
X-673100Y-8385810D01*
X-660400Y-8398510D01*
X-660400Y-8436610D01*
X-635000Y-8436610D02*
X-635000Y-8385810D01*
X-635000Y-8398510D02*
X-622300Y-8385810D01*
X-596900Y-8411210D01*
X-571500Y-8385810D01*
X-558800Y-8398510D01*
X-558800Y-8436610D01*
X-342900Y-8360410D02*
X-419100Y-8436610D01*
X-419100Y-8360410D02*
X-381000Y-8398510D01*
X-241300Y-8436610D02*
X-317500Y-8436610D01*
X-317500Y-8360410D01*
X-241300Y-8360410D01*
X-317500Y-8398510D02*
X-266700Y-8398510D01*
X-215900Y-8423910D02*
X-203200Y-8436610D01*
X-152400Y-8436610D01*
X-139700Y-8423910D01*
X-139700Y-8411210D01*
X-152400Y-8398510D01*
X-203200Y-8398510D01*
X-215900Y-8385810D01*
X-215900Y-8373110D01*
X-203200Y-8360410D01*
X-152400Y-8360410D01*
X-139700Y-8373110D01*
X+452120Y-8385810D02*
X+477520Y-8360410D01*
X+477520Y-8436610D01*
X+541020Y-8373110D02*
X+553720Y-8360410D01*
X+591820Y-8360410D01*
X+604520Y-8373110D01*
X+604520Y-8385810D01*
X+591820Y-8398510D01*
X+553720Y-8398510D01*
X+541020Y-8411210D01*
X+541020Y-8436610D01*
X+604520Y-8436610D01*
D14*
X-1586681Y-8594909D02*
X-1496879Y-8684711D01*
X-1586681Y-8684711D02*
X-1496879Y-8594909D01*
D20*
X-1219200Y-8627110D02*
X-1193800Y-8601710D01*
X-1193800Y-8677910D01*
X-1104900Y-8665210D02*
X-1092200Y-8665210D01*
X-1092200Y-8677910D01*
X-1104900Y-8677910D01*
X-1104900Y-8665210D01*
X-1041400Y-8665210D02*
X-1041400Y-8614410D01*
X-1028700Y-8601710D01*
X-977900Y-8601710D01*
X-965200Y-8614410D01*
X-965200Y-8665210D01*
X-977900Y-8677910D01*
X-1028700Y-8677910D01*
X-1041400Y-8665210D01*
X-1041400Y-8677910D02*
X-965200Y-8601710D01*
X-914400Y-8627110D02*
X-889000Y-8601710D01*
X-889000Y-8677910D01*
X-762000Y-8614410D02*
X-774700Y-8601710D01*
X-812800Y-8601710D01*
X-825500Y-8614410D01*
X-825500Y-8665210D01*
X-812800Y-8677910D01*
X-774700Y-8677910D01*
X-762000Y-8665210D01*
X-762000Y-8652510D01*
X-774700Y-8639810D01*
X-825500Y-8639810D01*
X-736600Y-8677910D02*
X-736600Y-8627110D01*
X-736600Y-8639810D02*
X-723900Y-8627110D01*
X-698500Y-8652510D01*
X-673100Y-8627110D01*
X-660400Y-8639810D01*
X-660400Y-8677910D01*
X-635000Y-8677910D02*
X-635000Y-8627110D01*
X-635000Y-8639810D02*
X-622300Y-8627110D01*
X-596900Y-8652510D01*
X-571500Y-8627110D01*
X-558800Y-8639810D01*
X-558800Y-8677910D01*
X-342900Y-8601710D02*
X-419100Y-8677910D01*
X-419100Y-8601710D02*
X-381000Y-8639810D01*
X-241300Y-8677910D02*
X-317500Y-8677910D01*
X-317500Y-8601710D01*
X-241300Y-8601710D01*
X-317500Y-8639810D02*
X-266700Y-8639810D01*
X-215900Y-8665210D02*
X-203200Y-8677910D01*
X-152400Y-8677910D01*
X-139700Y-8665210D01*
X-139700Y-8652510D01*
X-152400Y-8639810D01*
X-203200Y-8639810D01*
X-215900Y-8627110D01*
X-215900Y-8614410D01*
X-203200Y-8601710D01*
X-152400Y-8601710D01*
X-139700Y-8614410D01*
X+452120Y-8627110D02*
X+477520Y-8601710D01*
X+477520Y-8677910D01*
X+528320Y-8665210D02*
X+528320Y-8614410D01*
X+541020Y-8601710D01*
X+591820Y-8601710D01*
X+604520Y-8614410D01*
X+604520Y-8665210D01*
X+591820Y-8677910D01*
X+541020Y-8677910D01*
X+528320Y-8665210D01*
X+528320Y-8677910D02*
X+604520Y-8601710D01*
X+642620Y-8614410D02*
X+655320Y-8601710D01*
X+693420Y-8601710D01*
X+706120Y-8614410D01*
X+706120Y-8627110D01*
X+693420Y-8639810D01*
X+655320Y-8639810D01*
X+642620Y-8652510D01*
X+642620Y-8677910D01*
X+706120Y-8677910D01*
D14*
X-1541780Y-8817610D02*
X-1541780Y-8944610D01*
X-1605280Y-8881110D02*
X-1478280Y-8881110D01*
X-1586681Y-8836209D02*
X-1496879Y-8926011D01*
X-1586681Y-8926011D02*
X-1496879Y-8836209D01*
D20*
X-1219200Y-8868410D02*
X-1193800Y-8843010D01*
X-1193800Y-8919210D01*
X-1104900Y-8906510D02*
X-1092200Y-8906510D01*
X-1092200Y-8919210D01*
X-1104900Y-8919210D01*
X-1104900Y-8906510D01*
X-1016000Y-8868410D02*
X-990600Y-8843010D01*
X-990600Y-8919210D01*
X-863600Y-8893810D02*
X-939800Y-8893810D01*
X-889000Y-8843010D01*
X-889000Y-8919210D01*
X-825500Y-8855710D02*
X-812800Y-8843010D01*
X-774700Y-8843010D01*
X-762000Y-8855710D01*
X-762000Y-8868410D01*
X-774700Y-8881110D01*
X-762000Y-8893810D01*
X-762000Y-8906510D01*
X-774700Y-8919210D01*
X-812800Y-8919210D01*
X-825500Y-8906510D01*
X-800100Y-8881110D02*
X-774700Y-8881110D01*
X-736600Y-8919210D02*
X-736600Y-8868410D01*
X-736600Y-8881110D02*
X-723900Y-8868410D01*
X-698500Y-8893810D01*
X-673100Y-8868410D01*
X-660400Y-8881110D01*
X-660400Y-8919210D01*
X-635000Y-8919210D02*
X-635000Y-8868410D01*
X-635000Y-8881110D02*
X-622300Y-8868410D01*
X-596900Y-8893810D01*
X-571500Y-8868410D01*
X-558800Y-8881110D01*
X-558800Y-8919210D01*
X-342900Y-8843010D02*
X-419100Y-8919210D01*
X-419100Y-8843010D02*
X-381000Y-8881110D01*
X-241300Y-8919210D02*
X-317500Y-8919210D01*
X-317500Y-8843010D01*
X-241300Y-8843010D01*
X-317500Y-8881110D02*
X-266700Y-8881110D01*
X-215900Y-8906510D02*
X-203200Y-8919210D01*
X-152400Y-8919210D01*
X-139700Y-8906510D01*
X-139700Y-8893810D01*
X-152400Y-8881110D01*
X-203200Y-8881110D01*
X-215900Y-8868410D01*
X-215900Y-8855710D01*
X-203200Y-8843010D01*
X-152400Y-8843010D01*
X-139700Y-8855710D01*
X+502920Y-8893810D02*
X+426720Y-8893810D01*
X+477520Y-8843010D01*
X+477520Y-8919210D01*
M02*
